<svg height="512pt" viewBox="0 -11 512.00201 512" width="512pt" xmlns="http://www.w3.org/2000/svg"><path d="m493.902344 27.914062c-2.214844-4.644531-6.398438-8.066406-11.378906-9.375-19.234376-5.046874-70.386719-13.910156-105.484376 22.070313l101.226563 120.242187s46.652344-67.855468 15.636719-132.9375zm0 0" fill="#3d4851"/><path d="m445.398438 145.976562-.105469.148438c.347656-.511719 31.300781-47.441406 16.007812-91.5625-5.160156-.960938-11.542969-1.789062-18.488281-1.882812-16.738281-.234376-33.796875 4.203124-45.773438 16.480468zm0 0" fill="#e8e8e8"/><path d="m18.097656 27.914062c2.214844-4.644531 6.398438-8.066406 11.378906-9.375 19.234376-5.046874 70.386719-13.910156 105.484376 22.070313l-101.226563 120.242187s-46.65625-67.855468-15.636719-132.9375zm0 0" fill="#3d4851"/><path d="m66.601562 145.976562.101563.148438c-.34375-.511719-31.296875-47.441406-16.007813-91.5625 5.164063-.960938 11.546876-1.789062 18.492188-1.882812 16.738281-.234376 33.796875 4.203124 45.773438 16.480468zm0 0" fill="#e8e8e8"/><path d="m311.730469 14.070312c-10.851563-2.609374-21.996094-4.472656-33.367188-5.53125l-22.363281 20.574219-22.363281-20.574219c-11.371094 1.058594-22.515625 2.921876-33.367188 5.53125l-19.242187 23.710938-19.246094-10.878906c-77.222656 33.386718-133.230469 106.546875-142.175781 193.664062l16.023437 19.484375-16.023437 29.644531c1.3125 12.832032 3.640625 25.355469 6.921875 37.488282l18.433594 12.011718-6.742188 21.234376c13.953125 31.835937 34.679688 60.019531 60.363281 82.742187h314.835938c25.683593-22.722656 46.410156-50.898437 60.359375-82.734375l-5.738282-21.242188 17.433594-12.023437c3.277344-12.132813 5.609375-24.644531 6.917969-37.476563l-20.683594-32.875 20.683594-16.253906c-8.941406-87.117187-64.949219-160.277344-142.175781-193.664062l-19.242188 13.210937zm0 0" fill="#ff8f71"/><path d="m191.789062 26.902344c14.800782-6.398438 30.257813-11.25 46.042969-14.503906l-4.171875-3.835938c-11.257812 1.054688-22.433594 2.910156-33.425781 5.550781zm0 0" fill="#fa695b"/><path d="m19.632812 269.644531c1.308594 12.679688 3.621094 25.25 6.929688 37.558594l18.398438 11.992187-6.742188 21.234376c13.824219 31.539062 34.578125 59.929687 60.363281 82.742187 0 0 30.003907 0 30 0-57.042969-50.511719-86.757812-126.796875-78.96875-202.605469 8.300781-80.878906 57.175781-149.726562 125.929688-185.886718l-13.761719-7.777344c-38.230469 16.527344-71.859375 43.25-96.691406 76.683594-22.777344 30.664062-38.0625 67.070312-43.917969 104.824218-.621094 4.019532-1.144531 8.074219-1.566406 12.15625l16.023437 19.484375zm0 0" fill="#fa695b"/><path d="m287.320312 260.578125c72.050782 14.523437 126.308594 78.183594 126.308594 154.515625 0 2.710938-.070312 5.402344-.207031 8.078125-41.917969 37.113281-97.042969 59.632813-157.421875 59.632813s-115.503906-22.519532-157.421875-59.632813c-.136719-2.675781-.207031-5.367187-.207031-8.078125 0-76.332031 54.257812-139.996094 126.304687-154.515625zm0 0" fill="#e8e8e8"/><path d="m287.320312 260.578125c-1.566406 15.917969-14.992187 28.359375-31.320312 28.359375-16.332031 0-29.753906-12.441406-31.320312-28.359375 10.125-2.039063 20.597656-3.113281 31.320312-3.113281s21.195312 1.074218 31.320312 3.113281zm0 0" fill="#333a41"/><g fill="#3d4851"><path d="m493.652344 245.152344c0 8.289062-.417969 16.472656-1.261719 24.542968 0 0-16.152344-24.042968-78.761719-32.046874 0 0 35.617188-30.664063 78.761719-17.082032.832031 8.082032 1.261719 16.28125 1.261719 24.585938zm0 0"/><path d="m485.472656 307.171875v.011719c-3.082031 11.449218-7.003906 22.550781-11.695312 33.246094-9.371094-9.601563-23.882813-21.09375-46.246094-32.765626 0 0 28.285156-10.5625 57.941406-.492187zm0 0"/><path d="m98.371094 237.648438c-62.609375 8.003906-78.765625 32.046874-78.765625 32.046874-.839844-8.070312-1.257813-16.253906-1.257813-24.542968 0-8.304688.429688-16.503906 1.257813-24.585938 43.148437-13.582031 78.765625 17.082032 78.765625 17.082032zm0 0"/><path d="m84.46875 307.664062c-22.363281 11.671876-36.875 23.164063-46.25 32.765626-4.6875-10.695313-8.609375-21.796876-11.691406-33.246094 29.65625-10.082032 57.941406.480468 57.941406.480468zm0 0"/><path d="m256 137.632812c-22.453125-47.910156-23.34375-103.929687-22.363281-129.09375 7.359375-.691406 14.820312-1.039062 22.363281-1.039062s15.003906.347656 22.363281 1.039062c.980469 25.164063.089844 81.183594-22.363281 129.09375zm0 0"/><path d="m200.269531 14.070312c-2.839843 23.503907-8.691406 50.078126-20.152343 74.542969-9.421876-20.105469-15.054688-41.636719-18.335938-61.710937 12.324219-5.320313 25.1875-9.632813 38.488281-12.832032zm0 0"/><path d="m350.214844 26.902344c-3.277344 20.074218-8.910156 41.605468-18.332032 61.710937-11.460937-24.464843-17.3125-51.039062-20.152343-74.542969 13.300781 3.199219 26.164062 7.511719 38.484375 12.832032zm0 0"/></g><path d="m260.730469 482.75c3.40625-.066406 6.835937-.148438 10.234375-.421875.011718 0 .023437 0 .035156-.003906-54.480469-3.394531-103.996094-25.136719-142.417969-59.152344-10.496093-9.296875-20.058593-19.46875-28.640625-30.34375-1.027344 7.273437-1.570312 14.707031-1.570312 22.261719 0 2.714844.070312 5.402344.207031 8.082031 6.550781 5.796875 13.421875 11.238281 20.585937 16.296875 39.710938 28.027344 88.054688 43.335938 136.835938 43.335938 1.582031 0 3.15625-.023438 4.730469-.054688zm0 0" fill="#d2d1d7"/><path d="m55.6875 302.839844c-8.808594-.160156-18.886719.855468-29.132812 4.335937 1.703124 6.332031 3.660156 12.59375 5.886718 18.765625 1.761719 4.890625 3.691406 9.726563 5.777344 14.488282 5.617188-5.757813 13.101562-12.191407 22.996094-18.9375-2.089844-6.136719-3.9375-12.359376-5.527344-18.652344zm0 0" fill="#333a41"/><path d="m18.382812 247.921875c.089844 7.261719.507813 14.515625 1.25 21.734375.460938-.65625 7.570313-10.457031 28.839844-19.453125-.238281-9.847656 1.363282-31.6875 1.484375-32.710937-9.363281-.941407-19.625-.300782-30.347656 3.074218-.183594 1.761719-.335937 3.53125-.476563 5.304688-.042968.480468-.835937 15.171875-.75 22.050781zm0 0" fill="#333a41"/><path d="m248.96875 7.589844c-6.558594.121094-15.3125.398437-15.335938.976562-.058593 1.480469-.105468 3.082032-.148437 4.773438 9.933594-2.242188 20.011719-3.855469 30.15625-4.800782 2.441406-.230468 4.898437-.40625 7.359375-.5625-.011719 0-.027344 0-.039062 0-7.3125-.519531-14.667969-.523437-21.992188-.386718zm0 0" fill="#333a41"/><path d="m164.433594 40.90625c8.769531-5.230469 17.902344-9.917969 27.355468-14.003906 2.355469-1.019532 4.730469-1.988282 7.117188-2.929688.511719-3.335937.964844-6.632812 1.359375-9.867187-5.265625 1.261719-10.488281 2.691406-15.652344 4.3125-7.734375 2.425781-15.363281 5.257812-22.804687 8.472656-.007813.003906-.019532.007813-.027344.011719.753906 4.601562 1.636719 9.28125 2.652344 14.003906zm0 0" fill="#333a41"/><path d="m354.417969 266.683594c4.140625 0 7.5-3.355469 7.5-7.5v-19.136719c0-4.140625-3.359375-7.5-7.5-7.5-4.144531 0-7.5 3.359375-7.5 7.5v19.136719c0 4.144531 3.355469 7.5 7.5 7.5zm0 0"/><path d="m157.582031 232.546875c-4.140625 0-7.5 3.359375-7.5 7.5v19.136719c0 4.144531 3.359375 7.5 7.5 7.5 4.144531 0 7.503907-3.355469 7.503907-7.5v-19.136719c0-4.140625-3.359376-7.5-7.503907-7.5zm0 0"/><path d="m281.675781 310.789062c-2.425781 2.773438-6.078125 4.363282-10.015625 4.363282s-7.585937-1.589844-10.011718-4.363282c-1.332032-1.523437-3.265626-2.453124-5.285157-2.550781-2.257812-.109375-4.523437.847657-6.011719 2.550781-2.425781 2.773438-6.074218 4.363282-10.011718 4.363282-3.941406 0-7.589844-1.589844-10.015625-4.363282-2.726563-3.121093-7.464844-3.441406-10.582031-.710937-3.121094 2.726563-3.441407 7.464844-.710938 10.585937 5.273438 6.03125 13.039062 9.492188 21.308594 9.492188 5.667968 0 11.105468-1.628906 15.660156-4.597656 4.554688 2.96875 9.992188 4.597656 15.660156 4.597656 8.269532 0 16.035156-3.460938 21.308594-9.492188 2.726562-3.121093 2.410156-7.859374-.710938-10.585937-3.117187-2.726563-7.859374-2.410156-10.582031.710937zm0 0"/><path d="m7.121094 121.007812c6.097656 19.65625 14.417968 34.449219 18.296875 40.757813-6.699219 18.511719-11.214844 37.972656-13.273438 58.03125-4.308593 41.96875 2.25 84.996094 19.207031 123.644531 14.171876 32.332032 35.691407 61.835938 62.253907 85.34375 44.808593 39.671875 102.480469 61.519532 162.394531 61.519532 39.070312 0 77.957031-9.429688 112.449219-27.273438 3.679687-1.902344 5.117187-6.429688 3.214843-10.109375-1.902343-3.679687-6.429687-5.121094-10.109374-3.214844-32.832032 16.984375-68.34375 25.59375-105.554688 25.59375-55.179688 0-108.335938-19.742187-150.046875-55.652343-.003906-.144532-.011719-.285157-.015625-.429688-.039062-1.375-.0625-2.757812-.0625-4.128906 0-25.707032 6.757812-51.199219 19.371094-73.585938 10.75-19.078125 25.976562-36.074218 43.976562-48.890625 14.960938-10.652343 31.90625-18.511719 49.710938-23.035156 1.546875 4.777344 4.03125 9.261719 7.28125 13.09375 7.148437 8.433594 17.902344 13.511719 28.949218 13.753906 10.839844.234375 21.554688-4.226562 29.0625-12.039062 4.03125-4.191407 7.050782-9.277344 8.84375-14.808594.367188-1.136719 23.363282 8.019531 25.410157 8.960937 28.34375 13.042969 52.398437 35.160157 67.878906 62.246094 13.511719 23.636719 20.46875 51.175782 19.707031 78.53125-.003906.109375-.011718.21875-.011718.328125-6.3125 5.429688-13.007813 10.582031-19.945313 15.347657-3.414063 2.347656-4.28125 7.015624-1.9375 10.433593 2.347656 3.414063 7.015625 4.277344 10.429687 1.933594 8.328126-5.71875 16.335938-11.96875 23.804688-18.585937 26.554688-23.5 48.078125-53.003907 62.246094-85.328126.003906-.011718.007812-.03125.015625-.042968 15.070312-34.785156 22.046875-72.761719 20.167969-110.640625-1.199219-24.210938-6.003907-48.199219-14.25-70.996094 3.875-6.308594 12.199218-21.101563 18.296874-40.757813 10.753907-34.671874 9.300782-67.976562-4.207031-96.320312-3.164062-6.640625-9.082031-11.523438-16.246093-13.40625-8.730469-2.292969-22.472657-5.023438-38.339844-5.023438-27.867188 0-51.984375 8.632813-70.152344 25.023438-7.335938-4.117188-14.921875-7.886719-22.746094-11.269531-23.3125-10.078125-48.65625-16.566407-74.125-18.941407-15.191406-1.425781-30.9375-1.425781-46.132812 0-33.964844 3.164063-67.128906 13.515626-96.875 30.210938-13.988282-12.660156-31.21875-20.621094-51.332032-23.652344-4.097656-.617187-7.921874 2.203125-8.535156 6.300782-.621094 4.09375 2.199219 7.917968 6.296875 8.535156 15.480469 2.332031 28.914063 8.03125 40.058594 16.980468-6.269531 4.074219-12.324219 8.421876-18.15625 13.015626-9.761719-4.78125-21.382813-7.292969-33.960937-7.292969-.449219 0-.898438 0-1.34375.007812-6.417969.085938-13.066407.761719-19.761719 2.007813-2.648438.492187-4.832031 2.371094-5.714844 4.917968-8.460937 24.417969-3.847656 49.332032 2.113281 66.964844-2.554687 4.261719-4.984375 8.605469-7.28125 13.019532-1.78125 3.425781-5.558594 11.363281-5.777344 11.851562-11.125-21.792969-28.980468-68.339844-7.792968-112.792969 1.261718-2.644531 3.632812-4.59375 6.511718-5.351562 5.242188-1.375 13.566407-3.191407 23.457032-4.046875 4.128906-.355469 7.1875-3.988282 6.828125-8.117188-.351563-4.128906-3.992188-7.1875-8.117188-6.828125-10.949219.945313-20.167969 2.957031-25.976562 4.480469-7.160157 1.882812-13.082031 6.765625-16.246094 13.40625-13.511719 28.339844-14.964844 61.648438-4.207031 96.320312zm20.097656 105.265626c9.066406-2.050782 18.46875-2.171876 27.605469-.527344 7.804687 1.402344 15.386719 4.019531 22.5 7.507812.152343.074219.304687.144532.453125.21875-3.679688.777344-7.34375 1.636719-10.980469 2.605469-19.613281 5.214844-32.558594 11.957031-40.789063 17.699219-.105468-2.871094-.160156-5.75-.160156-8.628906 0-6.21875.253906-12.5.757813-18.730469.042969-.011719.089843-.023438.136719-.035157.15625-.039062.316406-.074218.476562-.109374zm10.714844 85.597656c6.21875-1.25 12.574218-1.707032 18.90625-1.5 2.421875.082031 4.742187.25 6.914062.488281-7.394531 4.632813-14.527344 9.710937-21.195312 15.339844-.515625.433593-1.035156.867187-1.539063 1.304687-1.914062-4.992187-3.652343-10.058594-5.207031-15.160156.664062-.15625 2.082031-.464844 2.121094-.472656zm239.234375-43.125c-4.125 7.714844-12.421875 12.683594-21.167969 12.683594-7.023438 0-13.84375-3.164063-18.394531-8.5625-1.578125-1.867188-2.863281-4.007813-3.785157-6.269532.230469-.03125.460938-.058594.691407-.09375 7.574219-1.074218 15.183593-1.511718 22.832031-1.511718 6.96875.0625 13.9375.59375 20.835938 1.605468-.300782.734375-.640626 1.453125-1.011719 2.148438zm175.082031 44.691406c-1.316406-.867188-2.644531-1.726562-4.007812-2.582031 3.03125-.328125 6.339843-.539063 9.84375-.539063 6.089843 0 12.167968.644532 18.101562 2.019532-1.554688 5.105468-3.292969 10.175781-5.210938 15.167968-2.066406-1.796875-14.492187-11.277344-18.726562-14.066406zm15.492188-69.609375c-7.628907-3.332031-15.558594-5.933594-23.609376-8.035156-3.222656-.839844-6.546874-1.617188-9.96875-2.332031 9.082032-4.511719 21.515626-8.867188 35.667969-8.867188.019531 0 .039063.003906.054688.003906 5.214843 0 10.296875.71875 15.386719 1.789063.039062.007812.082031.019531.121093.03125.503907 6.230469.757813 12.511719.757813 18.730469 0 2.90625-.054688 5.8125-.164063 8.707031-1.042969-.726563-13.039062-7.757813-18.246093-10.027344zm-12.332032-141.324219c-10.175781-14.222656-21.871094-27.355468-34.898437-39.152344 6.625-2.203124 14.132812-3.285156 22.199219-3.175781 4.164062.054688 8.453124.402344 12.800781 1.027344 3.914062 14.324219 2.753906 28.890625-.101563 41.300781zm-9.320312-81.246094c14.265625 0 26.648437 2.464844 34.53125 4.535157 2.875.753906 5.25 2.703125 6.507812 5.347656 21.125 44.316406 3.300782 90.921875-7.804687 112.765625-.230469-.511719-5.746094-11.792969-5.765625-11.832031-2.296875-4.414063-4.722656-8.753907-7.28125-13.011719 5.964844-17.636719 10.574218-42.546875 2.113281-66.960938-.882813-2.546874-3.0625-4.425781-5.714844-4.917968-6.953125-1.292969-14.03125-2.019532-21.105469-2.019532-12.582031 0-24.199218 2.515626-33.960937 7.292969-5.832031-4.59375-11.890625-8.941406-18.160156-13.015625 14.996093-12.074218 34-18.183594 56.640625-18.183594zm-105.679688 17.257813c-1.84375 8.664063-4.113281 17.253906-6.90625 25.664063-.523437 1.589843-1.066406 3.167968-1.621094 4.71875-.691406-1.917969-1.347656-3.871094-1.992187-5.839844-3.871094-11.878906-6.710937-24.089844-8.765625-36.40625-.132812-.800782-.257812-1.613282-.386719-2.421875 7.132813 2.085937 14.171875 4.523437 21.058594 7.289062-.429687 2.335938-.894531 4.667969-1.386719 6.996094zm-69.359375-23.035156c.144531 8.46875-.035156 16.9375-.511719 25.390625-1.457031 25.929687-5.703124 52.105468-14.40625 76.644531-.042968.125-.089843.25-.132812.375-8.59375-24.0625-12.820312-49.585937-14.417969-75.023437-.144531-2.277344-1.101562-27.386719-.632812-27.386719 9.988281-.644531 20.113281-.644531 30.101562 0zm-45.140625 1.488281c-.074218 5.484375-.023437 10.96875.148438 16.449219.988281 31.640625 5.976562 64.042969 17.421875 93.890625 1.800781 4.695312 3.5 9.890625 6.121093 14.207031 3.054688 5.03125 10.695313 4.617187 13.191407-.703125.011719-.023438.023437-.050781.035156-.078125 2.304687-4.890625 4.359375-9.902344 6.269531-14.960937 10.925782-28.941407 15.6875-59.929688 16.789063-90.746094.222656-6.023438.28125-12.050782.203125-18.078125 6.339844.828125 12.652344 1.917969 18.867187 3.265625.003907.03125.011719.0625.015625.09375.796875 5.8125 1.769532 11.601562 2.902344 17.359375 3.632812 18.433593 9.035156 36.664062 17.023438 53.703125 1.277343 2.726562 3.90625 4.742187 6.984374 4.742187 2.910157 0 5.558594-1.683593 6.792969-4.316406 7.960938-16.992187 13.417969-35.085937 17.082031-53.464844.039063-.199219.085938-.394531.125-.59375 7.527344 3.628907 14.835938 7.683594 21.921876 12.109375 40.449218 25.25 72.507812 63.148438 90.839843 107.148438 7.082031 17.070312 12.148438 35.097656 14.949219 53.753906-.191406-.03125-.382812-.054688-.574219-.085938-4.351562-.703124-8.777343-1.070312-13.1875-1.070312-34.714843 0-60.039062 21.457031-61.101562 22.371094-2.242188 1.933594-3.140625 5.003906-2.289063 7.84375.84375 2.808594 3.324219 4.910156 6.234375 5.28125.023438.003906.042969.007812.066407.011718 18.167968 2.292969 36.582031 6.386719 53.125 14.445313 10.46875 5.089844 16.175781 10.007813 18.710937 12.578125-1.003906 8.648438-2.507813 17.257812-4.488281 25.703125-.9375-.222656-1.882813-.429687-2.835938-.621094-6.296875-1.289062-12.746094-1.890625-19.171875-1.890625-18.722656 0-32.59375 5.101563-33.175781 5.316406-2.773438 1.039063-4.679688 3.609376-4.863281 6.566407-.179688 2.914062 1.429687 5.761719 4.015625 7.113281 7.710937 4.023438 15.257812 8.429688 22.449218 13.328125 6.359376 4.328125 12.609376 9.167969 18.277344 14.484375-10.882812 23.351562-25.863281 45.011719-43.921875 63.585938-1.601562-27.796876-10.339843-55.148438-25.191406-78.703126-29.886719-47.402343-83.617187-77.046874-139.671875-77.046874-48.628906 0-96.28125 22.464843-127.273438 59.910156-22.160156 26.78125-35.257812 60.476562-37.539062 95.113281-.015625.242187-.03125.480469-.046875.722656-18.054687-18.566406-33.035156-40.230469-43.921875-63.585937.117188-.109375.226562-.214844.34375-.324219 11.949219-11.117187 25.949219-19.953125 40.378906-27.484375 2.625-1.371094 4.199219-4.160156 4.015625-7.113281-.175781-2.875-2.09375-5.53125-4.863281-6.566407-.375-.140624-6.292969-2.3125-15.476562-3.835937-13.125-2.175781-26.734376-2.046875-39.707032 1.039063-1.980468-8.445313-3.480468-17.054688-4.476562-25.726563.140625-.140625.296875-.296875.460937-.453125 13.539063-13.191406 32.8125-19.023438 50.8125-23.011719 6.789063-1.503906 13.652344-2.660156 20.546875-3.542969.023438-.003906.046875-.007812.070313-.011718 2.9375-.375 5.382812-2.445313 6.234375-5.28125 1.136718-3.792969-.90625-6.796875-3.765625-9.042969-5.980469-4.683594-29.1875-21.171875-59.625-21.171875-2.203125 0-4.417969.09375-6.617188.273438-.53125.042968-7.078125.464843-7.144531.882812 2.800781-18.652344 7.863281-36.671875 14.945312-53.742188 17.996094-43.378906 49.496094-80.792968 89.078126-106.042968 7.433593-4.746094 15.574218-9.316406 23.6875-13.226563.039062.207031.085937.40625.128906.609375 3.679687 18.359375 9.125 36.472656 17.078125 53.449219 2.648437 5.648437 10.945312 5.636719 13.585937 0 5.535156-11.816406 9.878906-24.195313 13.21875-36.800781 2.925782-11.050782 5.140625-22.269532 6.738282-33.589844.054687-.367188.113281-.734375.164062-1.105469.003906-.027343.007812-.054687.011719-.082031 6.214843-1.351562 12.527343-2.445312 18.867187-3.25zm-35.03125 9.65625c-2.054687 12.3125-4.902344 24.558594-8.773437 36.4375-.640625 1.96875-1.300781 3.921875-1.988281 5.835938-.558594-1.550782-1.097657-3.125-1.625-4.714844-2.964844-8.945313-5.355469-18.109375-7.25-27.339844-.363282-1.757812-.710938-3.535156-1.042969-5.324219 6.886719-2.765625 13.925781-5.199219 21.058593-7.289062-.125.796875-.246093 1.601562-.378906 2.394531zm-134.289062 75.878906c-2.855469-12.410156-4.015625-26.976562-.101563-41.300781 4.347657-.625 8.636719-.96875 12.800781-1.027344 8.003907-.113281 15.574219.976563 22.199219 3.179688-9.761719 8.839843-18.777343 18.433593-26.964843 28.671875-.003907.003906-.003907.003906-.007813.007812-2.695313 3.371094-5.304687 6.816406-7.820313 10.324219-.035156.046875-.070312.09375-.105468.144531zm0 0"/></svg>