<svg id="Capa_1" enable-background="new 0 0 512 512" height="512" viewBox="0 0 512 512" width="512" xmlns="http://www.w3.org/2000/svg"><g><g><circle cx="256" cy="256" fill="#c8c5c9" r="248.5"/><circle cx="256" cy="256" fill="#ecf4ff" r="215.367"/><path d="m256 7.5c-3.856 0-7.687.101-11.5.274 131.903 6.01 237 114.838 237 248.226s-105.097 242.216-237 248.226c3.813.174 7.644.274 11.5.274 137.243 0 248.5-111.257 248.5-248.5s-111.257-248.5-248.5-248.5z" fill="#b6b1b7"/><path d="m256 40.633c-3.858 0-7.692.106-11.5.307 113.596 5.977 203.867 99.975 203.867 215.06s-90.271 209.082-203.867 215.06c3.808.2 7.642.307 11.5.307 118.944 0 215.367-96.423 215.367-215.367s-96.423-215.367-215.367-215.367z" fill="#ddeafb"/><g><g><path d="m90.333 239.433c-9.149 0-16.567 7.417-16.567 16.567s7.417 16.567 16.567 16.567h16.567c9.149 0 16.567-7.417 16.567-16.567s-7.417-16.567-16.567-16.567z" fill="#5c545f"/></g><g><path d="m272.567 405.1c0-9.15-7.417-16.567-16.567-16.567s-16.567 7.417-16.567 16.567v17.639c0 9.149 7.417 16.567 16.567 16.567 9.149 0 16.567-7.417 16.567-16.567z" fill="#5c545f"/></g><g><path d="m405.1 239.433c-9.15 0-16.567 7.417-16.567 16.567s7.417 16.567 16.567 16.567h16.567c9.15 0 16.567-7.417 16.567-16.567s-7.417-16.567-16.567-16.567z" fill="#5c545f"/></g><g><path d="m339.661 166.855-115.976 52.717c-1.823.829-3.285 2.29-4.113 4.113l-.204.449 68.499 68.499.449-.204c1.823-.829 3.284-2.29 4.113-4.113l52.716-115.976c1.584-3.485-2-7.069-5.484-5.485z" fill="#ff8086"/><path d="m339.661 166.855-18.935 8.607-51.297 112.854c-.829 1.823-2.29 3.285-4.113 4.113l-97.041 44.11-1.419 3.122c-1.584 3.484 2 7.068 5.484 5.484l115.976-52.716c1.823-.829 3.284-2.29 4.113-4.113l52.716-115.976c1.584-3.485-2-7.069-5.484-5.485z" fill="#e5646e"/><path d="m166.855 339.661c-1.584 3.484 2 7.068 5.484 5.484l115.976-52.716c.912-.414 1.733-.987 2.43-1.684l-69.49-69.49c-.697.697-1.269 1.518-1.684 2.43z" fill="#c3ddff"/><path d="m275.331 275.331-5.902 12.985c-.829 1.823-2.29 3.285-4.113 4.113l-97.041 44.11-1.419 3.122c-1.584 3.484 2 7.068 5.484 5.484l115.976-52.716c.912-.414 1.733-.987 2.43-1.684z" fill="#a4ccff"/></g></g></g><g><path d="m231.933 405.1v17.64c0 13.271 10.796 24.066 24.067 24.066 13.27 0 24.067-10.796 24.067-24.066v-17.64c0-13.271-10.796-24.066-24.067-24.066-13.271-.001-24.067 10.795-24.067 24.066zm33.134 0v17.64c0 4.999-4.067 9.066-9.067 9.066s-9.067-4.067-9.067-9.066v-17.64c0-4.999 4.067-9.066 9.067-9.066 4.999-.001 9.067 4.067 9.067 9.066z"/><path d="m130.967 256c0-13.27-10.796-24.066-24.067-24.066h-16.567c-13.27 0-24.067 10.796-24.067 24.066 0 13.271 10.796 24.066 24.067 24.066h16.567c13.27 0 24.067-10.795 24.067-24.066zm-24.067 9.066h-16.567c-4.999 0-9.067-4.067-9.067-9.066s4.067-9.066 9.067-9.066h16.567c4.999 0 9.067 4.067 9.067 9.066s-4.068 9.066-9.067 9.066z"/><path d="m421.666 280.066c13.271 0 24.067-10.796 24.067-24.066s-10.796-24.066-24.067-24.066h-16.566c-13.271 0-24.067 10.796-24.067 24.066 0 13.271 10.796 24.066 24.067 24.066zm-25.633-24.066c0-4.999 4.067-9.066 9.067-9.066h16.566c5 0 9.067 4.067 9.067 9.066s-4.067 9.066-9.067 9.066h-16.566c-4.999 0-9.067-4.067-9.067-9.066z"/><path d="m212.744 220.581-52.716 115.976c-2.028 4.461-1.099 9.583 2.366 13.049 2.247 2.247 5.189 3.427 8.197 3.427 1.632 0 3.283-.348 4.853-1.061l115.976-52.716s.001-.001.001-.001c3.474-1.579 6.256-4.362 7.836-7.837l52.716-115.977c2.028-4.461 1.099-9.583-2.366-13.049-3.466-3.467-8.588-4.394-13.049-2.366l-115.978 52.718c-3.474 1.579-6.256 4.362-7.836 7.837zm10.462 13.232 54.981 54.981-100.798 45.816zm65.588 44.374-54.981-54.981 100.798-45.817z"/><path d="m437.019 74.98c-48.352-48.351-112.639-74.98-181.019-74.98-62.648 0-122.939 22.865-169.767 64.384-3.1 2.748-3.384 7.488-.636 10.588 2.747 3.1 7.487 3.385 10.587.637 44.082-39.085 100.839-60.609 159.816-60.609 132.888 0 241 108.112 241 241s-108.112 241-241 241-241-108.112-241-241c0-58.977 21.524-115.733 60.607-159.815 2.748-3.1 2.463-7.84-.636-10.588-3.1-2.749-7.84-2.464-10.587.637-41.519 46.828-64.384 107.12-64.384 169.766 0 68.38 26.629 132.668 74.98 181.02 48.352 48.351 112.64 74.98 181.02 74.98s132.667-26.629 181.019-74.98c48.352-48.352 74.981-112.64 74.981-181.02s-26.629-132.668-74.981-181.02z"/><path d="m109.766 424.186c40.52 35.261 92.455 54.68 146.234 54.68 59.53 0 115.497-23.183 157.59-65.276 42.094-42.094 65.276-98.061 65.276-157.59s-23.181-115.496-65.276-157.59c-42.093-42.094-98.06-65.276-157.59-65.276s-115.497 23.182-157.59 65.276c-42.095 42.094-65.277 98.061-65.277 157.59 0 53.781 19.421 105.717 54.685 146.239 2.719 3.124 7.456 3.452 10.581.733s3.454-7.456.734-10.581c-32.888-37.791-51-86.229-51-136.392 0-114.618 93.248-207.866 207.867-207.866s207.867 93.249 207.867 207.867-93.249 207.866-207.867 207.866c-50.161 0-98.597-18.11-136.388-50.996-3.123-2.717-7.862-2.391-10.581.734s-2.39 7.863.735 10.582z"/><path d="m224.735 66.73c-3.134.977-5.268 3.878-5.268 7.16v82.71c0 4.143 3.358 7.5 7.5 7.5s7.5-3.357 7.5-7.5v-58.65l42.252 61.184c2.318 3.349 6.139 4.79 9.732 3.664 3.695-1.153 6.082-4.682 6.082-8.995l-.063-79.363c-.003-4.141-3.36-7.494-7.5-7.494-.002 0-.004 0-.006 0-4.142.003-7.498 3.364-7.494 7.506l.047 59.44-44.379-64.264c-1.865-2.7-5.269-3.872-8.403-2.898z"/></g></g></svg>