<svg height="512" viewBox="0 0 60 60" width="512" xmlns="http://www.w3.org/2000/svg"><g id="Page-1" fill="none" fill-rule="evenodd"><g id="014---Soda-and-Burger" fill-rule="nonzero"><path id="Shape" d="m57 16-.5 7-16.5 1-16.5-1-.5-7 17-1z" fill="#ff5364"/><path id="Shape" d="m54.64 49-.31 4.36c-.1888474 2.6160793-2.3671138 4.6415615-4.99 4.64l-17.84.0000009c2.7614237-.0000009 5-2.2385772 5-5.0000009v-3c.8532257.0060548 1.6669944-.3588639 2.23-1z" fill="#ff5364"/><path id="Shape" d="m23.51 23.14-.01-.14h33l-1.86 26h-14.41z" fill="#f9eab0"/><path id="Shape" d="m23.51 23.14-.01-.14h33l-1.86 26h-14.41z" fill="#f9eab0"/><path id="Shape" d="m54 2c-.0032948 1.10320187-.8967981 1.9967052-2 2h-8c-1.1032019.0032948-1.9967052.89679813-2 2v5.5h-4v-6.5c0-2.76142375 2.2385763-5 5-5h9c1.1032019.0032948 1.9967052.89679813 2 2z" fill="#84b5cb"/><path id="Shape" d="m49.34 58v.05h-40.34v-.05c-2.76142375 0-5-2.2385763-5-5v-3h9.25l1.05 1.2c.1834794.2072306.4446427.3291464.7213226.3367267.2766798.0075803.5441267-.0998531.7386774-.2967267l1.24-1.24h21v3c0 2.7614237-2.2385763 5-5 5z" fill="#f29c1f"/><path id="Shape" d="m37 40v4h-14l-7.24 7.24c-.1945507.1968736-.4619976.304307-.7386774.2967267-.2766799-.0075803-.5378432-.1294961-.7213226-.3367267l-1.05-1.2-5.25-6h-3v-4z" fill="#f0c419"/><path id="Shape" d="m39 37c.0018943.4043977-.0214846.8085186-.07 1.21-.1074861 1.0180199-.9663216 1.7905403-1.99 1.79h-31.88c-1.0236784.0005403-1.8825139-.7719801-1.99-1.79-.04851538-.4014814-.07189428-.8056023-.07-1.21 0-7.73 8.06-14 18-14 .8385915.0009355 1.6765061.0476718 2.51.14 5.65.61 10.46 3.27 13.16 6.98 1.0731637 1.441353 1.8080042 3.1058521 2.15 4.87.1207368.6631677.1809844 1.3359319.18 2.01z" fill="#f29c1f"/><path id="Shape" d="m41 47c-.0060328 1.6543489-1.3456511 2.9939672-3 3h-21l6-6h15c1.6568542 0 3 1.3431458 3 3z" fill="#603e26"/><path id="Shape" d="m13.25 50h-9.25c-1.65685425 0-3-1.3431458-3-3s1.34314575-3 3-3h4z" fill="#603e26"/><g fill="#f9eab0"><circle id="Oval" cx="10" cy="31" r="1"/><circle id="Oval" cx="14" cy="28" r="1"/><circle id="Oval" cx="24" cy="27" r="1"/><circle id="Oval" cx="7" cy="36" r="1"/><circle id="Oval" cx="12" cy="35" r="1"/><circle id="Oval" cx="16" cy="32" r="1"/></g><rect id="Rectangle-path" fill="#bdc3c7" height="5" rx="2" width="38" x="21" y="11"/><circle id="Oval" cx="49" cy="30" fill="#f3d55b" r="3"/><path id="Shape" d="m42 32c0 1.6568542-1.3431458 3-3 3-.0601734.0016565-.1203804-.0016884-.18-.01-.3419958-1.7641479-1.0768363-3.428647-2.15-4.87.564451-.7100952 1.4228988-1.1227397 2.33-1.12 1.6568542 0 3 1.3431458 3 3z" fill="#f3d55b"/><circle id="Oval" cx="46" cy="42" fill="#f3d55b" r="2"/><circle id="Oval" cx="49" cy="30" fill="#f3d55b" r="3"/><path id="Shape" d="m42 32c0 1.6568542-1.3431458 3-3 3-.0601734.0016565-.1203804-.0016884-.18-.01-.3419958-1.7641479-1.0768363-3.428647-2.15-4.87.564451-.7100952 1.4228988-1.1227397 2.33-1.12 1.6568542 0 3 1.3431458 3 3z" fill="#f3d55b"/><circle id="Oval" cx="46" cy="42" fill="#f3d55b" r="2"/><path id="Shape" d="m59 59.05h-58c-.55228475 0-1-.4477153-1-1s.44771525-1 1-1h58c.5522847 0 1 .4477153 1 1s-.4477153 1-1 1z" fill="#d25627"/><path id="Shape" d="m19 28.051c-.3100269.0001145-.6025736-.1435732-.792-.389l-6.1-7.922c-.2202894-.2828012-.2723523-.6618823-.1364609-.9936013.1358913-.331719.4389457-.5653235.7943294-.6122957.3553837-.0469721.7087235.0998747.9261315.384897l6.1 7.922c.2323874.3018755.2730652.7095675.1049052 1.051408-.1681601.3418405-.5159423.5584391-.8969052.558592z" fill="#a59078"/><ellipse id="Oval" cx="10.761" cy="16.357" fill="#24ae5f" rx="5" ry="3.5" transform="matrix(.792 -.61 .61 .792 -7.746 9.967)"/><path id="Shape" d="m9.846 16.169c-.3101997-.0001245-.60277819-.1441973-.792-.39l-2.441-3.169c-.21793202-.2834902-.26806927-.6617114-.13152552-.9921912s.43902425-.5630105.79350001-.61c.35447577-.0469895.7070935.0987009.92502551.3821912l2.441 3.169c.2323874.3018755.2730652.7095675.1049052 1.051408-.1681601.3418405-.5159423.5584391-.8969052.558592z" fill="#a59078"/></g></g></svg>