<svg height="512" viewBox="0 0 60 61" width="512" xmlns="http://www.w3.org/2000/svg"><g id="Page-1" fill="none" fill-rule="evenodd"><g id="014---Soda-and-Burger" fill-rule="nonzero"><ellipse id="Oval" cx="10.761" cy="17.357" fill="#a4c2f7" rx="5" ry="3.5" transform="matrix(.792 -.61 .61 .792 -8.356 10.174)"/><path id="Shape" d="m14.722 14.306c-.828-1.076-2.422-1.317-4.054-.792.4138594.1685031.7769942.441371 1.054.792 1.18 1.531.363 4.138-1.825 5.824-.61373174.4719702-1.30462357.8339948-2.042 1.07 1.75327701.5457367 3.6641943.140448 5.045-1.07 2.185-1.686 3-4.293 1.822-5.824z" fill="#7facfa"/><path id="Shape" d="m49.34 59v.05h-40.34v-.05c-2.76142375 0-5-2.2385763-5-5v-3h9.25l1.05 1.2c.1834794.2072306.4446427.3291464.7213226.3367267.2766798.0075803.5441267-.0998531.7386774-.2967267l1.24-1.24h21v3c0 2.7614237-2.2385763 5-5 5z" fill="#e8edfc"/><path id="Shape" d="m30 59h3c2.7614237 0 5-2.2385763 5-5v-3h-3v3c0 2.7614237-2.2385763 5-5 5z" fill="#cad9fc"/><path id="Rectangle-path" d="m46.34 59h3v1h-3z" fill="#cad9fc"/><path id="Shape" d="m37 41v4h-14l-7.24 7.24c-.1945507.1968736-.4619976.304307-.7386774.2967267-.2766799-.0075803-.5378432-.1294961-.7213226-.3367267l-1.05-1.2-5.25-6h-3v-4z" fill="#e8edfc"/><path id="Shape" d="m13.6 51.4.7.8c.1834794.2072306.4446427.3291464.7213226.3367267.2766798.0075803.5441267-.0998531.7386774-.2967267l7.24-7.24h-3z" fill="#cad9fc"/><path id="Rectangle-path" d="m34 41h3v4h-3z" fill="#cad9fc"/><path id="Shape" d="m39 38c.0018943.4043977-.0214846.8085186-.07 1.21-.1074861 1.0180199-.9663216 1.7905403-1.99 1.79h-31.88c-1.0236784.0005403-1.8825139-.7719801-1.99-1.79-.04851538-.4014814-.07189428-.8056023-.07-1.21 0-7.73 8.06-14 18-14 .8385915.0009355 1.6765061.0476718 2.51.14 5.65.61 10.46 3.27 13.16 6.98 1.0731637 1.441353 1.8080042 3.1058521 2.15 4.87.1207368.6631677.1809844 1.3359319.18 2.01z" fill="#e8edfc"/><path id="Shape" d="m38.82 35.99c-.3419958-1.7641479-1.0768363-3.428647-2.15-4.87-2.7-3.71-7.51-6.37-13.16-6.98-.8334939-.0923282-1.6714085-.1390645-2.51-.14-.5 0-.987.027-1.474.058.33.022.66.046.984.082 5.65.61 10.46 3.27 13.16 6.98 1.0731637 1.441353 1.8080042 3.1058521 2.15 4.87.1207368.6631677.1809844 1.3359319.18 2.01.0018943.4043977-.0214846.8085186-.07 1.21-.1074861 1.0180199-.9663216 1.7905403-1.99 1.79h3c1.0236784.0005403 1.8825139-.7719801 1.99-1.79.0485154-.4014814.0718943-.8056023.07-1.21.0009844-.6740681-.0592632-1.3468323-.18-2.01z" fill="#cad9fc"/><path id="Shape" d="m13.25 51h-9.25c-1.65685425 0-3-1.3431458-3-3s1.34314575-3 3-3h4z" fill="#a4c2f7"/><path id="Shape" d="m8 45h-3l5.25 6h3z" fill="#7facfa"/><path id="Shape" d="m56.5 24-1.86 26h-14.41c.7879734-.8809761.9852278-2.1425182.5037881-3.2219795-.4814398-1.0794613-1.5518341-1.775632-2.7337881-1.7780205h-1v-4h-.06c1.0236784.0005403 1.8825139-.7719801 1.99-1.79.0485154-.4014814.0718943-.8056023.07-1.21 0-7.07-6.74-12.91-15.49-13.86l-.01-.14z" fill="#e8edfc"/><path id="Shape" d="m53.5 24-1.86 26h3l1.86-26z" fill="#cad9fc"/><path id="Shape" d="m41 48c-.0060328 1.6543489-1.3456511 2.9939672-3 3h-21l6-6h15c1.6568542 0 3 1.3431458 3 3z" fill="#a4c2f7"/><path id="Shape" d="m40.12 45.88c-.5616324-.5634227-1.3244649-.8800702-2.12-.88h-3c1.181954.0023885 2.2523483.6985592 2.7337881 1.7780205.4814397 1.0794613.2841853 2.3410034-.5037881 3.2219795-.5630056.6411361-1.3767743 1.0060548-2.23 1h3c1.6543489-.0060328 2.9939672-1.3456511 3-3 .0000702-.7955351-.3165773-1.5583676-.88-2.12z" fill="#7facfa"/><path id="Shape" d="m54.64 50-.31 4.36c-.1888474 2.6160793-2.3671138 4.6415615-4.99 4.64l-16.34.0000009c2.7614237-.0000009 5-2.2385772 5-5.0000009v-3c.8532257.0060548 1.6669944-.3588639 2.23-1z" fill="#a4c2f7"/><path id="Shape" d="m51.64 50-.31 4.36c-.1888474 2.6160793-2.3671138 4.6415615-4.99 4.6400009l3-.0000009c2.6228862.0015615 4.8011526-2.0239207 4.99-4.64l.31-4.36z" fill="#7facfa"/><path id="Shape" d="m57 17-.5 7h-33l-.5-7z" fill="#a4c2f7"/><path id="Shape" d="m54 17-.5 7h3l.5-7z" fill="#7facfa"/><rect id="Rectangle-path" fill="#e8edfc" height="5" rx="2" width="38" x="21" y="12"/><path id="Shape" d="m57 12h-3c1.1032019.0032948 1.9967052.8967981 2 2v1c-.0032948 1.1032019-.8967981 1.9967052-2 2h3c1.1032019-.0032948 1.9967052-.8967981 2-2v-1c-.0032948-1.1032019-.8967981-1.9967052-2-2z" fill="#cad9fc"/><circle id="Oval" cx="49" cy="31" fill="#e8edfc" r="3"/><path id="Shape" d="m42 33c0 1.6568542-1.3431458 3-3 3-.0601734.0016565-.1203804-.0016884-.18-.01-.3419958-1.7641479-1.0768363-3.428647-2.15-4.87.564451-.7100952 1.4228988-1.1227397 2.33-1.12 1.6568542 0 3 1.3431458 3 3z" fill="#e8edfc"/><circle id="Oval" cx="46" cy="43" fill="#e8edfc" r="2"/><path id="Shape" d="m54 3c-.0032948 1.10320187-.8967981 1.9967052-2 2h-8c-1.1032019.0032948-1.9967052.89679813-2 2v5h-4v-6c0-2.76142375 2.2385763-5 5-5h9c1.1032019.0032948 1.9967052.89679813 2 2z" fill="#a4c2f7"/><path id="Shape" d="m49.326 59.05h-2.884c2.335.001 2.801.028 2.884 0z" fill="#fff"/><path id="Shape" d="m7.855 21.2c.96814471.356961 2.03185529.356961 3 0-2.538-1.09-1.856-4.59.772-6.615.6163024-.4672539 1.3079243-.8257474 2.045-1.06-1.575-.679-3.67 0-5.045 1.06-2.627 2.024-3.312 5.526-.772 6.615z" fill="#fff"/><path id="Shape" d="m4 51v3c0 2.7614237 2.23857625 5 5 5 0 .056-.608.065 5.652.062-3.039-.002-2.652-.017-2.652-.062-2.76142375 0-5-2.2385763-5-5v-3c-1.65685425 0-3-1.3431458-3-3s1.34314575-3 3-3h1c0-3.435-.024-3.948.011-4.005-1.00317954-.0238177-1.83341051-.7873222-1.941-1.785-.935-7.48 6.417-14.51 16.275-15.166-11.319-.729-20.302 6.945-19.275 15.166.10525405.9996517.936112 1.7658731 1.941 1.79-.035.052-.011.565-.011 4h-1c-1.65685425 0-3 1.3431458-3 3s1.34314575 3 3 3z" fill="#fff"/><path id="Shape" d="m4.93 30.014 1.564 1.247c-1.56915415 1.8998595-2.44828285 4.27534-2.494 6.739h-2c.02227952-1.4549347.28934509-2.8957365.79-4.262.50938769-1.3478847 1.23191923-2.6052246 2.14-3.724z" fill="#fff"/><g fill="#428dff"><path id="Shape" d="m3.743 35.076c-.55228475.0027614-1.00223858-.4427153-1.005-.995s.44271525-1.0022386.995-1.005h.01c.55228475 0 1 .4477153 1 1s-.44771525 1-1 1z"/><circle id="Oval" cx="10" cy="32" r="1"/><circle id="Oval" cx="14" cy="29" r="1"/><circle id="Oval" cx="24" cy="28" r="1"/><circle id="Oval" cx="7" cy="37" r="1"/><circle id="Oval" cx="12" cy="36" r="1"/><circle id="Oval" cx="16" cy="33" r="1"/><path id="Shape" d="m57 11h-14v-4c0-.55228475.4477153-1 1-1h8c1.6568542 0 3-1.34314575 3-3s-1.3431458-3-3-3h-9c-3.3123376.00330738-5.9966926 2.68766243-6 6v5h-14c-1.6568542 0-3 1.3431458-3 3v1c.0042553 1.2886994.8329299 2.4299902 2.057 2.833l.373 5.224c-.474-.028-.947-.057-1.43-.057-1.4470297.0084406-2.89042.1459861-4.313.411l-2.43-3.155c.8082439-.7758728 1.4154004-1.7368894 1.769-2.8.4592614-1.2624611.2677892-2.6700814-.512-3.764-.8588885-1.0324033-2.1705396-1.576432-3.508-1.455-1.1178251.0725544-2.20126106.4157397-3.157 1l-.649-.847c-.21434231-.2933078-.57089135-.4473039-.93136819-.4022646-.36047685.0450393-.66817472.2820288-.80376043.6190579-.13558572.3370291-.07773022.7210796.15112862 1.0032067l.652.848c-.8082439.7758728-1.41540043 1.7368894-1.769 2.8-.45873006 1.262518-.26729232 2.6698846.512 3.764 1.2 1.563 3.873 2.105 6.665.458l1.876 2.435c-.7912051.2203454-1.569995.4830576-2.333.787-1.3994587.5756389-2.72816667 1.3101191-3.96 2.189-.62136057.4399083-1.2154525.9171187-1.779 1.429-.55542054.5279455-1.07334381 1.0939855-1.55 1.694-.18038825.2053373-.26426182.4780648-.23043133.7492821.03383048.2712173.18212942.5149847.40743133.6697179.43934341.3015091 1.03461143.2276907 1.387-.172.41551312-.5240207.8672896-1.0182347 1.352-1.479.49862374-.4537028 1.02425146-.8768098 1.574-1.267 1.1063524-.7901326 2.3002634-1.4498372 3.558-1.966.9455435-.3714401 1.9167517-.6738983 2.906-.905l2.324 3.018c.3381723.434136.9635634.5134562 1.3994099.1774912.4358464-.335965.5183391-.9609455.1845901-1.3984912l-1.705-2.213c.964987-.1394609 1.9380661-.2156236 2.913-.228 9.374 0 17 5.832 17 13 .0012234.3676316-.0201502.7349908-.064 1.1-.051542.5129013-.4845219.9025832-1 .9h-31.876c-.51926745-.0009211-.95251306-.3969076-1-.914-.04212173-.3604382-.06215914-.7231153-.06-1.086 0-.5522847-.44771525-1-1-1s-1 .4477153-1 1c-.00237043.440161.02301325.8800335.076 1.317.12036245 1.1259898.86449671 2.088259 1.924 2.488v2.195c-2.01176888-.0025048-3.7110655 1.4923684-3.96503286 3.4880439-.25396737 1.9956756 1.01675863 3.8685104 2.96503286 4.3699561v2.142c.00038366 1.4996922.56556057 2.9442315 1.583 4.046h-3.583c-.55228475 0-1 .4477153-1 1s.44771525 1 1 1h58c.5522847 0 1-.4477153 1-1s-.4477153-1-1-1h-5.243c.9172913-.9927431 1.4710759-2.267047 1.571-3.615l2.615-36.6c1.2235658-.4025137 2.0521952-1.5429366 2.057-2.831v-1c0-1.6568542-1.3431458-3-3-3zm-47.575 9.477c-.6835283.0756523-1.36274441-.1752093-1.833-.677-.36875466-.5819615-.43997896-1.3042204-.192-1.947.23181639-.6705949.6072212-1.2825047 1.1-1.793l.554.719c.21434231.2933078.57089135.4473039.93136819.4022646.36047681-.0450393.66817471-.2820288.80376041-.6190579s.0777302-.7210796-.1511286-1.0032067l-.554-.719c1.209-.643 3.024-.991 3.846.076.3673902.581894.4371405 1.3035133.188 1.945-.3505848.989022-.9880676 1.8510687-1.831 2.476-.8191263.6566355-1.8157332 1.0536068-2.862 1.14zm29.575-14.477c0-2.209139 1.790861-4 4-4h9c.5522847 0 1 .44771525 1 1s-.4477153 1-1 1h-8c-1.6568542 0-3 1.34314575-3 3v4h-2zm16.568 17h-31.137l-.357-5h31.852zm-17.595 8.3c.3081245-.1927791.6635541-.2966046 1.027-.3.9878758-.0043813 1.8292564.7169525 1.975812 1.6939066.1465557.976954-.4461341 1.9134168-1.391812 2.1990934-.3505195-1.2728527-.8938111-2.4845515-1.611-3.593zm1.949 8.035c.0542752-.4428964.0803278-.8887964.078-1.335 0-.378-.037-.749-.072-1.12 1.9724051-.4682312 3.2811863-2.3398278 3.0440862-4.353135-.2371002-2.0133073-1.9448677-3.5296554-3.9720862-3.526865-.7851419.0044341-1.5511213.2429323-2.2.685-1.7501247-2.0107447-3.9224539-3.6104558-6.362-4.685h24.988l-1.716 24h-11.852c.3145663-1.1958675.0563087-2.4700073-.6990843-3.4490029-.755393-.9789957-1.922368-1.5519691-3.1589157-1.5509971v-2.2c1.0544995-.3942614 1.7976187-1.3480985 1.922-2.467zm-1.922 6.665c1.1045695 0 2 .8954305 2 2s-.8954305 2-2 2h-18.586l4-4zm1 8v-2.142c.5987376-.1562324 1.1527595-.4500215 1.618-.858h12.949l-.234 3.287c-.1599952 2.0891314-1.897766 3.7050451-3.993 3.713h-11.88c.9908585-1.0966853 1.5396001-2.5219881 1.54-4zm-33-12h30v2h-13c-.2651948.0000566-.5195073.1054506-.707.293l-7.245 7.244-1.03-1.177-.031-.036-5.235-5.983c-.19184781-.2139673-.46463876-.3376664-.752-.341h-2zm-4 6c0-1.1045695.8954305-2 2-2h3.546l3.5 4h-7.046c-1.1045695 0-2-.8954305-2-2zm7 10c-2.209139 0-4-1.790861-4-4v-2h7.8l.748.855c.3652016.4157676.8859345.662202 1.439.681h.065c.5306052-.0005056 1.0393972-.2112138 1.415-.586l.947-.95h19.586v2c0 2.209139-1.790861 4-4 4-.0782212.0061462-.1554319.0215883-.23.046h-23.54c-.07456813-.0244117-.15177876-.0398538-.23-.046zm49-43c0 .5522847-.4477153 1-1 1h-34c-.5522847 0-1-.4477153-1-1v-1c0-.5522847.4477153-1 1-1h34c.5522847 0 1 .4477153 1 1z"/><path id="Shape" d="m49 35c2.209139 0 4-1.790861 4-4s-1.790861-4-4-4-4 1.790861-4 4 1.790861 4 4 4zm0-6c1.1045695 0 2 .8954305 2 2s-.8954305 2-2 2-2-.8954305-2-2 .8954305-2 2-2z"/><path id="Shape" d="m46 46c1.6568542 0 3-1.3431458 3-3s-1.3431458-3-3-3-3 1.3431458-3 3 1.3431458 3 3 3zm0-4c.5522847 0 1 .4477153 1 1s-.4477153 1-1 1-1-.4477153-1-1 .4477153-1 1-1z"/></g></g></g></svg>