<?xml version="1.0" encoding="iso-8859-1"?>
<!-- Generator: Adobe Illustrator 19.0.0, SVG Export Plug-In . SVG Version: 6.00 Build 0)  -->
<svg version="1.1" id="Capa_1" xmlns="http://www.w3.org/2000/svg" xmlns:xlink="http://www.w3.org/1999/xlink" x="0px" y="0px"
	 viewBox="0 0 512 512" style="enable-background:new 0 0 512 512;" xml:space="preserve">
<g>
	<path style="fill:#CC66A1;" d="M485.517,423.724h-8.828v-220.69l8.828-35.31V97.103L432.552,0l-52.966,97.103v70.621l8.828,35.31
		v7.415C352.93,176.274,305.251,157.71,256,158.897c-49.251-1.186-96.93,17.377-132.414,51.553v-7.415l8.828-35.31v-52.966h8.916
		c3.272-0.026,6.259-1.863,7.76-4.771c1.5-2.908,1.266-6.407-0.609-9.088L79.448,0L10.417,100.899
		c-1.875,2.681-2.109,6.181-0.609,9.088s4.488,4.745,7.76,4.771h8.916v52.966l8.828,35.31v220.69h-8.828
		c-7.027-0.009-13.768,2.778-18.737,7.746C2.778,436.439-0.009,443.18,0,450.207v35.31c-0.009,7.027,2.778,13.768,7.746,18.737
		c4.969,4.969,11.71,7.756,18.737,7.746h459.034c7.027,0.009,13.768-2.778,18.736-7.746c4.969-4.969,7.756-11.71,7.746-18.737
		v-35.31c0.009-7.027-2.778-13.768-7.746-18.737C499.285,426.502,492.544,423.715,485.517,423.724z M256,238.345
		c54.935-1.552,106.096,27.848,132.414,76.094v3.354H123.586v-3.266C150.08,266.442,201.114,237.08,256,238.345z"/>
	<rect x="35.31" y="203.035" style="fill:#F0C419;" width="88.276" height="220.69"/>
	<rect x="26.483" y="114.759" style="fill:#CC66A1;" width="105.931" height="52.966"/>
	<polygon style="fill:#4482C3;" points="132.414,167.724 123.586,203.035 35.31,203.035 26.483,167.724 	"/>
	<g>
		<path style="fill:#F0C419;" d="M141.33,114.759H17.567c-3.272-0.026-6.259-1.863-7.76-4.771s-1.266-6.407,0.609-9.088L79.448,0
			l69.032,100.899c1.875,2.681,2.109,6.181,0.609,9.088C147.589,112.895,144.601,114.732,141.33,114.759z"/>
		<rect x="388.414" y="203.035" style="fill:#F0C419;" width="88.276" height="220.69"/>
	</g>
	<rect x="379.586" y="97.103" style="fill:#CC66A1;" width="105.931" height="70.621"/>
	<polygon style="fill:#4482C3;" points="485.517,167.724 476.69,203.035 388.414,203.035 379.586,167.724 	"/>
	<polygon style="fill:#F0C419;" points="485.517,97.103 379.586,97.103 432.552,0 	"/>
	<path style="fill:#4482C3;" d="M388.414,210.45v103.989c-26.318-48.245-77.479-77.646-132.414-76.094
		c-54.886-1.265-105.92,28.098-132.414,76.182V210.45C159.07,176.274,206.749,157.71,256,158.897
		C305.251,157.71,352.93,176.274,388.414,210.45z"/>
	<rect x="123.586" y="317.793" style="fill:#71C285;" width="264.828" height="105.931"/>
	<g>
		<path style="fill:#FFFFFF;" d="M476.69,485.517c-2.341,0.001-4.587-0.929-6.243-2.585c-1.656-1.656-2.585-3.901-2.585-6.243
			v-8.828h-70.621c-4.875,0-8.828-3.952-8.828-8.828s3.952-8.828,8.828-8.828h70.621c9.746,0.011,17.644,7.909,17.655,17.655v8.828
			c0.001,2.341-0.929,4.587-2.585,6.243C481.277,484.588,479.031,485.518,476.69,485.517z"/>
		<path style="fill:#FFFFFF;" d="M361.931,467.862h-17.655c-4.875,0-8.828-3.952-8.828-8.828s3.952-8.828,8.828-8.828h17.655
			c4.875,0,8.828,3.952,8.828,8.828S366.806,467.862,361.931,467.862z"/>
	</g>
	<g>
		<path style="fill:#F9EAB0;" d="M70.621,308.966c-2.341,0.001-4.587-0.929-6.243-2.585c-1.656-1.656-2.585-3.901-2.585-6.243
			v-52.966c0-4.875,3.952-8.828,8.828-8.828c4.875,0,8.828,3.952,8.828,8.828v52.966c0.001,2.341-0.929,4.587-2.585,6.243
			C75.208,308.036,72.962,308.966,70.621,308.966z"/>
		<path style="fill:#F9EAB0;" d="M70.621,361.931c-2.341,0.001-4.587-0.929-6.243-2.585c-1.656-1.656-2.585-3.901-2.585-6.243
			v-17.655c0-4.875,3.952-8.828,8.828-8.828c4.875,0,8.828,3.952,8.828,8.828v17.655c0.001,2.341-0.929,4.587-2.585,6.243
			C75.208,361.002,72.962,361.932,70.621,361.931z"/>
		<path style="fill:#F9EAB0;" d="M423.724,308.966c-2.341,0.001-4.587-0.929-6.243-2.585c-1.656-1.656-2.585-3.901-2.585-6.243
			v-52.966c0-4.875,3.952-8.828,8.828-8.828s8.828,3.952,8.828,8.828v52.966c0.001,2.341-0.929,4.587-2.585,6.243
			C428.311,308.036,426.066,308.966,423.724,308.966z"/>
		<path style="fill:#F9EAB0;" d="M423.724,361.931c-2.341,0.001-4.587-0.929-6.243-2.585c-1.656-1.656-2.585-3.901-2.585-6.243
			v-17.655c0-4.875,3.952-8.828,8.828-8.828s8.828,3.952,8.828,8.828v17.655c0.001,2.341-0.929,4.587-2.585,6.243
			C428.311,361.002,426.066,361.932,423.724,361.931z"/>
	</g>
	<g>
		<path style="fill:#FFFFFF;" d="M308.974,209.694c-0.765-0.001-1.527-0.101-2.267-0.297c-16.556-4.304-33.601-6.442-50.707-6.362
			c-11.341-0.022-22.664,0.892-33.854,2.733c-4.809,0.805-9.359-2.441-10.164-7.25c-0.805-4.809,2.441-9.359,7.25-10.164
			c12.153-2,24.451-2.995,36.768-2.974c18.631-0.078,37.193,2.257,55.224,6.948c4.287,1.135,7.067,5.273,6.497,9.671
			C317.151,206.396,313.409,209.689,308.974,209.694L308.974,209.694z"/>
		<path style="fill:#FFFFFF;" d="M353.095,227.858c-1.547,0.001-3.066-0.406-4.405-1.181c-2.707-1.565-5.506-3.079-8.397-4.543
			c-2.815-1.423-4.657-4.239-4.832-7.389c-0.175-3.149,1.343-6.153,3.983-7.879c2.64-1.726,6-1.913,8.815-0.49
			c3.19,1.616,6.276,3.286,9.259,5.009c3.463,1.998,5.151,6.074,4.115,9.935C360.595,225.18,357.093,227.863,353.095,227.858z"/>
	</g>
	<g>
		<path style="fill:#14A085;" d="M176.552,397.241c-2.341,0.001-4.587-0.929-6.243-2.585c-1.656-1.656-2.585-3.901-2.585-6.243
			v-35.31c0-4.875,3.952-8.828,8.828-8.828s8.828,3.952,8.828,8.828v35.31c0.001,2.341-0.929,4.587-2.585,6.243
			C181.139,396.312,178.893,397.242,176.552,397.241z"/>
		<path style="fill:#14A085;" d="M229.517,397.241c-2.341,0.001-4.587-0.929-6.243-2.585c-1.656-1.656-2.585-3.901-2.585-6.243
			v-35.31c0-4.875,3.952-8.828,8.828-8.828s8.828,3.952,8.828,8.828v35.31c0.001,2.341-0.929,4.587-2.585,6.243
			C234.104,396.312,231.859,397.242,229.517,397.241z"/>
		<path style="fill:#14A085;" d="M282.483,397.241c-2.341,0.001-4.587-0.929-6.243-2.585c-1.656-1.656-2.585-3.901-2.585-6.243
			v-35.31c0-4.875,3.952-8.828,8.828-8.828s8.828,3.952,8.828,8.828v35.31c0.001,2.341-0.929,4.587-2.585,6.243
			C287.07,396.312,284.824,397.242,282.483,397.241z"/>
		<path style="fill:#14A085;" d="M335.448,397.241c-2.341,0.001-4.587-0.929-6.243-2.585c-1.656-1.656-2.585-3.901-2.585-6.243
			v-35.31c0-4.875,3.952-8.828,8.828-8.828s8.828,3.952,8.828,8.828v35.31c0.001,2.341-0.929,4.587-2.585,6.243
			C340.035,396.312,337.79,397.242,335.448,397.241z"/>
	</g>
</g>
<g>
</g>
<g>
</g>
<g>
</g>
<g>
</g>
<g>
</g>
<g>
</g>
<g>
</g>
<g>
</g>
<g>
</g>
<g>
</g>
<g>
</g>
<g>
</g>
<g>
</g>
<g>
</g>
<g>
</g>
</svg>
