<?xml version="1.0" encoding="iso-8859-1"?>
<!-- Generator: Adobe Illustrator 19.0.0, SVG Export Plug-In . SVG Version: 6.00 Build 0)  -->
<svg version="1.1" id="Capa_1" xmlns="http://www.w3.org/2000/svg" xmlns:xlink="http://www.w3.org/1999/xlink" x="0px" y="0px"
	 viewBox="0 0 512 512" style="enable-background:new 0 0 512 512;" xml:space="preserve">
<g>
	<g transform="translate(1 1)">
		<g>
			<path style="fill:#E3E7F2;" d="M476.867,417.018h-8.533V203.684l8.533-34.133h-25.6v-68.267h25.6l-51.2-93.867l-51.2,93.867
				v68.267L383,203.684v7.168c-34.301-33.037-80.391-50.981-128-49.835c-47.609-1.147-93.699,16.798-128,49.835v-7.168l8.533-34.133
				v-51.2h8.619c3.163-0.025,6.051-1.801,7.501-4.612c1.45-2.811,1.223-6.194-0.589-8.786L84.333,7.418l-66.731,97.536
				c-1.812,2.592-2.039,5.975-0.589,8.786c1.45,2.811,4.338,4.586,7.501,4.612h8.619v51.2l8.533,34.133v213.333h-8.533
				c-6.792-0.009-13.309,2.685-18.112,7.488s-7.497,11.32-7.488,18.112v34.133c-0.009,6.792,2.685,13.309,7.488,18.112
				c4.803,4.803,11.32,7.497,18.112,7.488h443.733c6.792,0.009,13.309-2.685,18.112-7.488c4.803-4.803,7.497-11.32,7.488-18.112
				v-34.133c0.009-6.792-2.685-13.309-7.488-18.112S483.659,417.009,476.867,417.018z M383,314.618H127v-3.157
				c25.61-46.482,74.944-74.865,128-73.643c53.104-1.5,102.559,26.92,128,73.557V314.618z"/>
			<rect x="41.667" y="203.684" style="fill:#E3E7F2;" width="85.333" height="213.333"/>
			<rect x="33.133" y="118.351" style="fill:#E3E7F2;" width="102.4" height="51.2"/>
			<polygon style="fill:#E3E7F2;" points="135.533,169.551 127,203.684 41.667,203.684 33.133,169.551 			"/>
			<path style="fill:#E3E7F2;" d="M144.152,118.351H24.515c-3.163-0.025-6.051-1.801-7.501-4.612
				c-1.45-2.811-1.223-6.194,0.589-8.786L84.333,7.418l2.645,3.84l64.085,93.696c1.812,2.592,2.039,5.975,0.589,8.786
				C150.203,116.55,147.315,118.326,144.152,118.351z"/>
			<rect x="383" y="203.684" style="fill:#E3E7F2;" width="85.333" height="213.333"/>
			<rect x="374.467" y="101.284" style="fill:#E3E7F2;" width="102.4" height="68.267"/>
			<polygon style="fill:#E3E7F2;" points="476.867,169.551 468.333,203.684 383,203.684 374.467,169.551 			"/>
			<polygon style="fill:#E3E7F2;" points="476.867,101.284 374.467,101.284 425.667,7.418 			"/>
			<path style="fill:#E3E7F2;" d="M383,210.852v100.523c-25.441-46.637-74.896-75.058-128-73.557
				c-53.056-1.222-102.39,27.161-128,73.643V210.852c34.301-33.037,80.391-50.981,128-49.835
				C302.609,159.871,348.699,177.815,383,210.852z"/>
			<rect x="127" y="314.618" style="fill:#E3E7F2;" width="256" height="102.4"/>
		</g>
		<g>
			<rect x="451.267" y="101.284" style="fill:#A4C2F7;" width="25.6" height="68.267"/>
			<path style="fill:#A4C2F7;" d="M502.467,442.618v34.133c0.009,6.792-2.685,13.309-7.488,18.112
				c-4.803,4.803-11.32,7.497-18.112,7.488h-25.6c6.792,0.009,13.309-2.685,18.112-7.488c4.803-4.803,7.497-11.32,7.488-18.112
				v-34.133c0.009-6.792-2.685-13.309-7.488-18.112c-4.803-4.803-11.32-7.497-18.112-7.488h25.6
				c6.792-0.009,13.309,2.685,18.112,7.488S502.476,435.825,502.467,442.618z"/>
			<polygon style="fill:#A4C2F7;" points="476.867,169.551 468.333,203.684 442.733,203.684 451.267,169.551 			"/>
			<rect x="442.733" y="203.684" style="fill:#A4C2F7;" width="25.6" height="213.333"/>
			<polygon style="fill:#A4C2F7;" points="451.267,101.284 412.867,30.884 425.667,7.418 476.867,101.284 			"/>
			<rect x="109.933" y="118.351" style="fill:#A4C2F7;" width="25.6" height="51.2"/>
			<polygon style="fill:#A4C2F7;" points="135.533,169.551 127,203.684 101.4,203.684 109.933,169.551 			"/>
			<rect x="101.4" y="203.684" style="fill:#A4C2F7;" width="25.6" height="213.333"/>
			<path style="fill:#A4C2F7;" d="M144.152,118.351h-18.859l-53.76-83.2l15.445-23.893l64.085,93.696
				c1.812,2.592,2.039,5.975,0.589,8.786C150.203,116.55,147.315,118.326,144.152,118.351z"/>
		</g>
		<path style="fill:#FFFFFF;" d="M33.133,502.351h25.6c-6.792,0.009-13.309-2.685-18.112-7.488
			c-4.803-4.803-7.497-11.32-7.488-18.112v-34.133c-0.009-6.792,2.685-13.309,7.488-18.112s11.32-7.497,18.112-7.488h8.533V203.684
			l-8.533-34.133v-51.2h-8.619c-3.163-0.025-6.051-1.801-7.501-4.612s-1.223-6.194,0.589-8.786l53.939-78.838L86.979,11.258
			l-2.645-3.84l-66.731,97.536c-1.812,2.592-2.039,5.975-0.589,8.786c1.45,2.811,4.338,4.586,7.501,4.612h8.619v51.2l8.533,34.133
			v213.333h-8.533c-6.792-0.009-13.309,2.685-18.112,7.488s-7.497,11.32-7.488,18.112v34.133
			c-0.009,6.792,2.685,13.309,7.488,18.112C19.824,499.666,26.341,502.36,33.133,502.351z"/>
	</g>
	<g>
		<polygon style="fill:#FFFFFF;" points="51.2,204.684 51.2,315.618 51.2,418.018 34.133,418.018 34.133,315.618 34.133,204.684 		
			"/>
		<g>
			<path style="fill:#428DFF;" d="M477.867,409.484V205.722l8.275-33.1c0.038-0.341,0.054-0.685,0.048-1.028
				c0.093-0.342,0.164-0.691,0.21-1.043v-68.267c0-0.143-0.075-0.261-0.081-0.403c-0.055-0.568-0.168-1.129-0.337-1.673
				c-0.112-0.554-0.28-1.095-0.5-1.615c-0.062-0.129-0.054-0.27-0.123-0.397l-51.2-93.867c-1.63-2.561-4.456-4.113-7.492-4.113
				s-5.862,1.551-7.492,4.113l-51.2,93.867c-0.069,0.127-0.061,0.269-0.123,0.398c-0.389,1.065-0.669,2.166-0.837,3.287
				c-0.007,0.141-0.081,0.26-0.081,0.403v68.267c0.047,0.351,0.117,0.699,0.21,1.042c-0.006,0.344,0.01,0.688,0.048,1.029
				l4.391,17.563C338.11,165.631,297.506,152.738,256,153.484c-41.506-0.746-82.11,12.147-115.582,36.701l4.391-17.563
				c0.038-0.341,0.054-0.685,0.048-1.028c0.093-0.342,0.164-0.691,0.21-1.043v-42.667h0.083c6.295,0.002,12.07-3.491,14.992-9.067
				c2.975-5.624,2.583-12.434-1.017-17.679L92.375,3.597c-1.677-2.194-4.28-3.481-7.042-3.481c-2.761,0-5.365,1.287-7.042,3.481
				l-66.75,97.542c-3.6,5.246-3.992,12.056-1.017,17.679c2.921,5.576,8.697,9.069,14.992,9.067H25.6v42.667
				c0.047,0.351,0.117,0.699,0.21,1.042c-0.006,0.344,0.01,0.688,0.048,1.029l8.275,33.1v33.096c0,4.713,3.821,8.533,8.533,8.533
				s8.533-3.821,8.533-8.533v-25.6h68.267v196.267H51.2v-102.4c0-4.713-3.821-8.533-8.533-8.533s-8.533,3.821-8.533,8.533v102.4
				C15.29,409.504,0.02,424.775,0,443.618v34.133c0.02,18.843,15.29,34.113,34.133,34.133h443.733
				c18.843-0.02,34.113-15.29,34.133-34.133v-34.133C511.98,424.775,496.71,409.504,477.867,409.484z M469.333,162.018H384v-51.2
				h85.333V162.018z M466.941,179.084l-4.267,17.067h-72.015l-4.267-17.067H466.941z M392.533,315.618v-102.4H460.8v196.267h-68.267
				V315.618z M426.667,26.239l36.824,67.512h-73.649L426.667,26.239z M375.467,215.554v69.26
				c-29.414-35.456-73.41-55.537-119.467-54.529c-46.076-0.922-90.058,19.215-119.467,54.697v-69.428
				c32.513-29.871,75.326-45.999,119.467-45.003C300.141,169.555,342.954,185.682,375.467,215.554z M370.973,307.084H141.13
				c25.574-38.224,68.891-60.75,114.87-59.733C302.035,246.217,345.436,268.766,370.973,307.084z M25.625,110.78l59.717-87.259
				l59.808,87.296l-8.611,0.001l-0.006-0.001h-102.4l-0.077,0.016l-8.465,0.001L25.625,110.78z M128,127.884v34.133H42.667v-34.133
				H128z M49.326,196.151l-4.267-17.067h80.548l-4.267,17.067H49.326z M136.533,324.151h238.933v85.333H136.533V324.151z
				 M494.933,477.751c-0.011,9.421-7.645,17.056-17.067,17.067H34.133c-9.421-0.011-17.056-7.645-17.067-17.067v-34.133
				c0.011-9.421,7.645-17.056,17.067-17.067h443.733c9.421,0.011,17.056,7.645,17.067,17.067V477.751z"/>
			<path style="fill:#428DFF;" d="M460.8,443.618h-68.267c-4.713,0-8.533,3.821-8.533,8.533c0,4.713,3.82,8.533,8.533,8.533H460.8
				v8.533c0,4.713,3.821,8.533,8.533,8.533c4.713,0,8.533-3.82,8.533-8.533v-8.533C477.856,451.263,470.221,443.629,460.8,443.618z"
				/>
			<path style="fill:#428DFF;" d="M358.4,443.618h-17.067c-4.713,0-8.533,3.821-8.533,8.533c0,4.713,3.82,8.533,8.533,8.533H358.4
				c4.713,0,8.533-3.821,8.533-8.533C366.933,447.438,363.113,443.618,358.4,443.618z"/>
			<path style="fill:#428DFF;" d="M42.667,281.484c3.45-0.014,6.556-2.096,7.879-5.282c1.323-3.187,0.606-6.856-1.82-9.31
				l-1.279-1.025c-0.476-0.324-0.993-0.583-1.538-0.771c-0.484-0.246-1.003-0.417-1.538-0.508c-0.563-0.096-1.133-0.153-1.704-0.171
				c-2.259,0.031-4.423,0.915-6.059,2.475c-2.07,1.994-2.979,4.908-2.409,7.726c0.57,2.818,2.539,5.149,5.222,6.183
				C40.447,281.239,41.55,281.471,42.667,281.484z"/>
			<path style="fill:#428DFF;" d="M76.8,307.084c2.263,0.001,4.434-0.898,6.035-2.499s2.499-3.771,2.499-6.035v-51.2
				c0-4.713-3.821-8.533-8.533-8.533s-8.533,3.821-8.533,8.533v51.2c-0.001,2.263,0.898,4.434,2.499,6.035
				C72.366,306.186,74.537,307.085,76.8,307.084z"/>
			<path style="fill:#428DFF;" d="M68.267,349.751c0,4.713,3.821,8.533,8.533,8.533c4.713,0,8.533-3.82,8.533-8.533v-17.067
				c0-4.713-3.82-8.533-8.533-8.533c-4.713,0-8.533,3.821-8.533,8.533V349.751z"/>
			<path style="fill:#428DFF;" d="M418.133,238.818c-2.263-0.001-4.434,0.898-6.035,2.499c-1.6,1.6-2.499,3.771-2.499,6.035v51.2
				c0,4.713,3.82,8.533,8.533,8.533s8.533-3.821,8.533-8.533v-51.2c0.001-2.263-0.898-4.434-2.499-6.035
				C422.568,239.716,420.397,238.817,418.133,238.818z"/>
			<path style="fill:#428DFF;" d="M418.133,324.151c-2.263-0.001-4.434,0.898-6.035,2.499c-1.6,1.6-2.499,3.771-2.499,6.035v17.067
				c0,4.713,3.82,8.533,8.533,8.533s8.533-3.82,8.533-8.533v-17.067c0.001-2.263-0.898-4.434-2.499-6.035
				C422.568,325.049,420.397,324.15,418.133,324.151z"/>
			<path style="fill:#428DFF;" d="M223.275,207.326c10.817-1.779,21.763-2.663,32.725-2.642c16.536-0.077,33.012,1.99,49.017,6.15
				c2.949,0.786,6.094-0.063,8.247-2.227s2.986-5.313,2.186-8.258s-3.114-5.239-6.066-6.015c-17.43-4.535-35.374-6.792-53.383-6.717
				c-11.906-0.02-23.793,0.941-35.541,2.875c-3.007,0.503-5.517,2.572-6.585,5.428c-1.068,2.856-0.531,6.064,1.408,8.417
				C217.221,206.69,220.268,207.829,223.275,207.326L223.275,207.326z"/>
			<path style="fill:#428DFF;" d="M337.483,223.147c2.8,1.412,5.506,2.876,8.117,4.392c2.641,1.526,5.896,1.527,8.537,0.002
				c2.642-1.525,4.269-4.344,4.268-7.394c-0.001-3.05-1.629-5.868-4.272-7.392c-2.883-1.662-5.867-3.276-8.95-4.842
				c-2.721-1.375-5.969-1.195-8.521,0.474c-2.552,1.669-4.019,4.572-3.85,7.617C332.982,219.049,334.762,221.771,337.483,223.147z"
				/>
			<path style="fill:#428DFF;" d="M179.2,341.218c-2.263-0.001-4.434,0.898-6.035,2.499c-1.6,1.6-2.499,3.771-2.499,6.035v34.133
				c0,4.713,3.821,8.533,8.533,8.533s8.533-3.821,8.533-8.533v-34.133c0.001-2.263-0.898-4.434-2.499-6.035
				C183.634,342.116,181.463,341.217,179.2,341.218z"/>
			<path style="fill:#428DFF;" d="M230.4,341.218c-2.263-0.001-4.434,0.898-6.035,2.499c-1.6,1.6-2.499,3.771-2.499,6.035v34.133
				c0,4.713,3.82,8.533,8.533,8.533s8.533-3.821,8.533-8.533v-34.133c0.001-2.263-0.898-4.434-2.499-6.035
				C234.834,342.116,232.663,341.217,230.4,341.218z"/>
			<path style="fill:#428DFF;" d="M281.6,341.218c-2.263-0.001-4.434,0.898-6.035,2.499c-1.6,1.6-2.499,3.771-2.499,6.035v34.133
				c0,4.713,3.82,8.533,8.533,8.533s8.533-3.821,8.533-8.533v-34.133c0.001-2.263-0.898-4.434-2.499-6.035
				C286.034,342.116,283.863,341.217,281.6,341.218z"/>
			<path style="fill:#428DFF;" d="M332.8,341.218c-2.263-0.001-4.434,0.898-6.035,2.499c-1.6,1.6-2.499,3.771-2.499,6.035v34.133
				c0,4.713,3.82,8.533,8.533,8.533s8.533-3.821,8.533-8.533v-34.133c0.001-2.263-0.898-4.434-2.499-6.035
				C337.234,342.116,335.063,341.217,332.8,341.218z"/>
		</g>
	</g>
</g>
<g>
</g>
<g>
</g>
<g>
</g>
<g>
</g>
<g>
</g>
<g>
</g>
<g>
</g>
<g>
</g>
<g>
</g>
<g>
</g>
<g>
</g>
<g>
</g>
<g>
</g>
<g>
</g>
<g>
</g>
</svg>
