<?xml version="1.0" encoding="iso-8859-1"?>
<!-- Generator: Adobe Illustrator 19.0.0, SVG Export Plug-In . SVG Version: 6.00 Build 0)  -->
<svg version="1.1" id="Capa_1" xmlns="http://www.w3.org/2000/svg" xmlns:xlink="http://www.w3.org/1999/xlink" x="0px" y="0px"
	 viewBox="0 0 512 512" style="enable-background:new 0 0 512 512;" xml:space="preserve">
<g>
	<g>
		<g>
			<path d="M477.867,409.484V205.722l8.275-33.1c0.038-0.341,0.054-0.685,0.048-1.028c0.093-0.342,0.164-0.691,0.21-1.043v-68.267
				c0-0.143-0.075-0.261-0.081-0.403c-0.055-0.568-0.168-1.129-0.337-1.673c-0.112-0.554-0.28-1.094-0.5-1.615
				c-0.062-0.129-0.054-0.27-0.123-0.397l-51.2-93.867c-1.63-2.561-4.456-4.112-7.492-4.112s-5.862,1.551-7.492,4.112l-51.2,93.867
				c-0.069,0.127-0.061,0.269-0.123,0.398c-0.389,1.065-0.669,2.166-0.837,3.287c-0.007,0.141-0.081,0.26-0.081,0.403v68.267
				c0.047,0.351,0.117,0.699,0.21,1.042c-0.006,0.344,0.01,0.688,0.048,1.029l4.391,17.563
				C338.11,165.631,297.506,152.738,256,153.484c-41.506-0.746-82.11,12.147-115.582,36.701l4.391-17.563
				c0.038-0.341,0.054-0.685,0.048-1.028c0.093-0.342,0.164-0.691,0.21-1.043v-42.667h0.083c6.295,0.002,12.07-3.491,14.992-9.067
				c2.975-5.624,2.583-12.434-1.017-17.679L92.375,3.597c-1.677-2.194-4.28-3.481-7.042-3.481s-5.365,1.287-7.042,3.481
				l-66.75,97.542c-3.6,5.245-3.992,12.056-1.017,17.679c2.922,5.576,8.697,9.069,14.992,9.067H25.6v42.667
				c0.047,0.351,0.117,0.699,0.21,1.042c-0.006,0.344,0.01,0.688,0.048,1.029l8.275,33.1v203.763
				C15.29,409.505,0.02,424.775,0,443.618v34.133c0.02,18.843,15.29,34.113,34.133,34.133h443.733
				c18.843-0.02,34.113-15.29,34.133-34.133v-34.133C511.98,424.775,496.71,409.505,477.867,409.484z M426.667,26.239l36.824,67.513
				h-73.649L426.667,26.239z M384,110.818h85.333v51.2H384V110.818z M390.659,196.151l-4.267-17.067h80.548l-4.267,17.067H390.659z
				 M460.8,213.218v196.267h-68.267v-93.867v-102.4H460.8z M256,170.551c44.141-0.996,86.954,15.131,119.467,45.003v69.26
				c-29.414-35.456-73.41-55.537-119.467-54.529c-46.076-0.922-90.058,19.215-119.467,54.697v-69.428
				C169.046,185.682,211.859,169.555,256,170.551z M375.467,324.151v85.333H136.533v-85.333H375.467z M141.129,307.084
				c25.574-38.225,68.891-60.75,114.871-59.733c46.035-1.134,89.436,21.415,114.973,59.733H141.129z M34.057,110.833l-8.465,0.001
				l0.034-0.054l59.717-87.259l59.808,87.296l-8.611,0.001l-0.006-0.001h-102.4L34.057,110.833z M49.326,196.151l-4.267-17.067
				h80.548l-4.267,17.067H49.326z M119.467,213.218v196.267H51.2V213.218H119.467z M42.667,162.018v-34.133H128v34.133H42.667z
				 M494.933,477.751c-0.011,9.421-7.645,17.056-17.067,17.067H34.133c-9.421-0.011-17.056-7.645-17.067-17.067v-34.133
				c0.011-9.421,7.646-17.056,17.067-17.067h443.733c9.421,0.011,17.056,7.646,17.067,17.067V477.751z"/>
			<path d="M460.8,443.618h-68.267c-4.713,0-8.533,3.821-8.533,8.533c0,4.713,3.821,8.533,8.533,8.533H460.8v8.533
				c0,4.713,3.82,8.533,8.533,8.533s8.533-3.82,8.533-8.533v-8.533C477.856,451.263,470.221,443.629,460.8,443.618z"/>
			<path d="M358.4,443.618h-17.067c-4.713,0-8.533,3.821-8.533,8.533c0,4.713,3.821,8.533,8.533,8.533H358.4
				c4.713,0,8.533-3.821,8.533-8.533C366.933,447.438,363.113,443.618,358.4,443.618z"/>
			<path d="M76.8,307.084c4.713,0,8.533-3.82,8.533-8.533v-51.2c0.001-2.263-0.898-4.434-2.499-6.035
				c-1.6-1.6-3.771-2.499-6.035-2.499c-2.263-0.001-4.434,0.898-6.035,2.499c-1.6,1.6-2.499,3.771-2.499,6.035v51.2
				C68.267,303.264,72.087,307.084,76.8,307.084z"/>
			<path d="M76.8,358.284c4.713,0,8.533-3.82,8.533-8.533v-17.067c0.001-2.263-0.898-4.434-2.499-6.035
				c-1.6-1.6-3.771-2.499-6.035-2.499c-2.263-0.001-4.434,0.898-6.035,2.499c-1.6,1.6-2.499,3.771-2.499,6.035v17.067
				C68.267,354.464,72.087,358.284,76.8,358.284z"/>
			<path d="M418.133,307.084c4.713,0,8.533-3.82,8.533-8.533v-51.2c0.001-2.263-0.898-4.434-2.499-6.035
				c-1.6-1.6-3.771-2.499-6.035-2.499c-2.263-0.001-4.434,0.898-6.035,2.499c-1.6,1.6-2.499,3.771-2.499,6.035v51.2
				C409.6,303.264,413.421,307.084,418.133,307.084z"/>
			<path d="M418.133,358.284c4.713,0,8.533-3.82,8.533-8.533v-17.067c0.001-2.263-0.898-4.434-2.499-6.035
				c-1.6-1.6-3.771-2.499-6.035-2.499c-2.263-0.001-4.434,0.898-6.035,2.499c-1.6,1.6-2.499,3.771-2.499,6.035v17.067
				C409.6,354.464,413.421,358.284,418.133,358.284z"/>
			<path d="M223.275,207.326L223.275,207.326c10.817-1.779,21.762-2.663,32.725-2.642c16.536-0.077,33.012,1.99,49.017,6.15
				c2.95,0.786,6.094-0.063,8.247-2.227c2.153-2.164,2.986-5.313,2.186-8.258s-3.114-5.239-6.066-6.015
				c-17.43-4.535-35.374-6.792-53.383-6.717c-11.906-0.02-23.793,0.941-35.541,2.875c-3.007,0.503-5.517,2.572-6.585,5.428
				s-0.531,6.064,1.408,8.417C217.221,206.69,220.268,207.829,223.275,207.326z"/>
			<path d="M337.483,223.147c2.8,1.413,5.506,2.876,8.117,4.392c2.641,1.526,5.896,1.527,8.537,0.002
				c2.642-1.525,4.269-4.344,4.268-7.394c-0.001-3.05-1.629-5.868-4.272-7.392c-2.883-1.662-5.867-3.276-8.95-4.842
				c-2.721-1.375-5.969-1.195-8.521,0.474c-2.552,1.669-4.019,4.572-3.85,7.617C332.982,219.049,334.762,221.771,337.483,223.147z"
				/>
			<path d="M179.2,392.418c4.713,0,8.533-3.82,8.533-8.533v-34.133c0.001-2.263-0.898-4.434-2.499-6.035
				c-1.6-1.6-3.771-2.499-6.035-2.499c-2.263-0.001-4.434,0.898-6.035,2.499c-1.6,1.6-2.499,3.771-2.499,6.035v34.133
				C170.667,388.597,174.487,392.418,179.2,392.418z"/>
			<path d="M230.4,392.418c4.713,0,8.533-3.82,8.533-8.533v-34.133c0.001-2.263-0.898-4.434-2.499-6.035
				c-1.6-1.6-3.771-2.499-6.035-2.499c-2.263-0.001-4.434,0.898-6.035,2.499c-1.6,1.6-2.499,3.771-2.499,6.035v34.133
				C221.867,388.597,225.687,392.418,230.4,392.418z"/>
			<path d="M281.6,392.418c4.713,0,8.533-3.82,8.533-8.533v-34.133c0.001-2.263-0.898-4.434-2.499-6.035
				c-1.6-1.6-3.771-2.499-6.035-2.499c-2.263-0.001-4.434,0.898-6.035,2.499c-1.6,1.6-2.499,3.771-2.499,6.035v34.133
				C273.067,388.597,276.887,392.418,281.6,392.418z"/>
			<path d="M332.8,392.418c4.713,0,8.533-3.82,8.533-8.533v-34.133c0.001-2.263-0.898-4.434-2.499-6.035
				c-1.6-1.6-3.771-2.499-6.035-2.499c-2.263-0.001-4.434,0.898-6.035,2.499c-1.6,1.6-2.499,3.771-2.499,6.035v34.133
				C324.267,388.597,328.087,392.418,332.8,392.418z"/>
		</g>
	</g>
</g>
<g>
</g>
<g>
</g>
<g>
</g>
<g>
</g>
<g>
</g>
<g>
</g>
<g>
</g>
<g>
</g>
<g>
</g>
<g>
</g>
<g>
</g>
<g>
</g>
<g>
</g>
<g>
</g>
<g>
</g>
</svg>
