<svg height="512" viewBox="0 0 42 58" width="512" xmlns="http://www.w3.org/2000/svg"><g id="Page-1" fill="none" fill-rule="evenodd"><g id="024---Cat" fill-rule="nonzero" transform="translate(-1 -1)"><path id="Shape" d="m41.32 45.22c-.7785434.3883293-1.6858401.4258129-2.4937622.1030261-.8079221-.3227869-1.4396114-.9751372-1.7362378-1.7930261-.6694567-2.1022398-2.0117575-3.9259416-3.82-5.19-.01 0-.01-.01-.02-.01.6064405 2.6309056.8387289 5.3342043.69 8.03-.05.71-.13 1.43-.25 2.15-.1.67-.23 1.35-.4 2.04-.17.72-.37 1.44-.61 2.19-.5000709 1.5287231-1.0945472 3.0249331-1.78 4.48-.6211639 1.3073511-2.0643483 2.0108508-3.4768444 1.6948347s-2.4183105-1.5674274-2.4231556-3.0148347v-1.9c-.0032948-1.1032019-.8967981-1.9967052-2-2h-2c-1.1032019.0032948-1.9967052.8967981-2 2v1.9c-.0048451 1.4474073-1.0106595 2.6988186-2.4231556 3.0148347s-2.8556805-.3874836-3.4768444-1.6948347c-.6791871-1.4506727-1.263743-2.9437954-1.75-4.47h-.01c-.22-.7-.43-1.44-.62-2.2-.16-.66-.3-1.34-.41-2.04s-.21-1.43-.26-2.15c-.03-.45-.05-.91-.05-1.36.0452638-2.2334443.2861856-4.4586244.72-6.65-1.8049654 1.2608234-3.14404542 3.0814099-3.81 5.18-.3822481 1.0451918-1.30376161 1.7989671-2.40399072 1.966405-1.10022912.167438-2.20425677-.2780811-2.88012298-1.1622443-.67586621-.8841631-.81612015-2.0664038-.3658863-3.0841607 1.98284558-4.3615847 4.91005267-8.2280939 8.57-11.32.64-.57 1.3-1.1 1.98-1.62h20.38c.68.51 1.34 1.05 1.98 1.62 3.6635664 3.0884737 6.59144 6.9558633 8.57 11.32.6577039 1.4903895.0337447 3.2348389-1.42 3.97z" fill="#f29c1f"/><path id="Shape" d="m11.87 34.37c-.4825576 1.2959641-.8669748 2.626382-1.15 3.98-.83989701.5791006-1.58248162 1.2879313-2.2 2.1-.12057728-.2011479-.16326839-.4395066-.12-.67.33367333-2.0988701.87637273-4.1591178 1.62-6.15.1095062-.3617541.4136166-.6308572.786008-.6955277s.7494257.0861432.9744881.3897952c.2250624.3036521.2596919.7082511.0895039 1.0457325z" fill="#e57e25"/><path id="Shape" d="m35.54 40.52c-.6351803-.8434171-1.4015904-1.5794409-2.27-2.18-.2934388-1.3488097-.6810553-2.6753936-1.16-3.97-.2043454-.5136248.0463752-1.0956546.56-1.3s1.0956546.0463752 1.3.56c.756806 2.0471827 1.3094906 4.1641323 1.65 6.32.0297721.1937343.0019528.3919464-.08.57z" fill="#e57e25"/><path id="Shape" d="m34.17 29.93c-3.4756171 2.7014811-7.7684767 4.1371375-12.17 4.07-4.4015233.0671375-8.6943829-1.3685189-12.17-4.07.64-.57 1.3-1.1 1.98-1.62h20.38c.68.51 1.34 1.05 1.98 1.62z" fill="#e57e25"/><ellipse id="Oval" cx="22" cy="41.5" fill="#ecf0f1" rx="5" ry="6.5"/><path id="Shape" d="m15 48c0 .5522847-.4477153 1-1 1-1.2462187-.0000119-2.4869671-.1647726-3.69-.49-.12-.71-.21-1.43-.26-2.15 1.2739594.4232348 2.6075769.6393146 3.95.64.5522847 0 1 .4477153 1 1z" fill="#35495e"/><path id="Shape" d="m15 52c0 .5522847-.4477153 1-1 1-.8891873-.0007102-1.7763678-.0844065-2.65-.25h-.01c-.22-.7-.43-1.44-.62-2.2 1.0666874.3037092 2.170931.4552061 3.28.45.5522847 0 1 .4477153 1 1z" fill="#35495e"/><path id="Shape" d="m33.94 46.36c-.05.71-.13 1.43-.25 2.15-1.2031706.3245404-2.4438277.4892889-3.69.49-.5522847 0-1-.4477153-1-1s.4477153-1 1-1c1.3390945-.0014266 2.669303-.2175011 3.94-.64z" fill="#35495e"/><path id="Shape" d="m33.29 50.55c-.17.72-.37 1.44-.61 2.19-.8825422.1750452-1.7802684.2621381-2.68.26-.5522847 0-1-.4477153-1-1s.4477153-1 1-1c1.1122061.0029597 2.2194393-.1484855 3.29-.45z" fill="#35495e"/><path id="Shape" d="m6.6 11c-3.338-2.391-2.658-7.345-2.259-9.209.09399563-.44496629.48040767-.76773399.935-.781 3.09175062-.14963473 6.1586062.61934087 8.814 2.21z" fill="#e57e25"/><path id="Shape" d="m29.91 3.22c2.6553938-1.59065913 5.7222494-2.35963473 8.814-2.21.4545923.01326601.8410044.33603371.935.781.4 1.864 1.079 6.818-2.259 9.209z" fill="#e57e25"/><path id="Shape" d="m39 17.5c0 7.934-8.237 13.5-17 13.5-8.713 0-17-5.549-17-13.5 0-7.6 7.745-16.5 17-16.5s17 8.9 17 16.5z" fill="#f29c1f"/><path id="Shape" d="m25.99 16.11c2.4 1.5 4.01 4.1 4.01 5.935 0 2.742-3.58 4.955-8 4.955s-8-2.213-8-4.955c0-1.839 1.61-4.437 4.01-5.935z" fill="#ecf0f1"/><path id="Shape" d="m26 20c-.5522847 0-1 .4477153-1 1s-.4477153 1-1 1-1-.4477153-1-1v-2c0-.5522847-.4477153-1-1-1s-1 .4477153-1 1v2c0 .5522847-.4477153 1-1 1s-1-.4477153-1-1-.4477153-1-1-1-1 .4477153-1 1c-.005247 1.1856144.691231 2.2620981 1.7748484 2.7432243 1.0836175.4811261 2.3492169.2758048 3.2251516-.5232243.8759347.7990291 2.1415341 1.0043504 3.2251516.5232243 1.0836174-.4811262 1.7800954-1.5576099 1.7748484-2.7432243 0-.5522847-.4477153-1-1-1z" fill="#7f8c8d"/><circle id="Oval" cx="14" cy="12" fill="#2c3e50" r="3"/><circle id="Oval" cx="14" cy="11.5" fill="#35495e" r="2.5"/><circle id="Oval" cx="30" cy="12" fill="#2c3e50" r="3"/><g fill="#35495e"><circle id="Oval" cx="30" cy="11.5" r="2.5"/><path id="Shape" d="m23 6h-2c-.5522847 0-1-.44771525-1-1s.4477153-1 1-1h2c.5522847 0 1 .44771525 1 1s-.4477153 1-1 1z"/><path id="Shape" d="m24 10h-4c-.5522847 0-1-.44771525-1-1s.4477153-1 1-1h4c.5522847 0 1 .44771525 1 1s-.4477153 1-1 1z"/><path id="Shape" d="m9 15c0 .5522847-.44771525 1-1 1h-2.9c.08465446-.6762804.22173377-1.34496.41-2h2.49c.55228475 0 1 .4477153 1 1z"/><path id="Shape" d="m9 19c0 .5522847-.44771525 1-1 1h-2.71c-.1540481-.6567481-.24777098-1.3261972-.28-2h2.99c.55228475 0 1 .4477153 1 1z"/><path id="Shape" d="m38.9 16h-2.9c-.5522847 0-1-.4477153-1-1s.4477153-1 1-1h2.49c.1882662.65504.3253455 1.3237196.41 2z"/><path id="Shape" d="m38.99 18c-.032229.6738028-.1259519 1.3432519-.28 2h-2.71c-.5522847 0-1-.4477153-1-1s.4477153-1 1-1z"/><path id="Shape" d="m26 16c0 1.105-1.791 3-4 3s-4-1.895-4-3 1.791-2 4-2 4 .9 4 2z"/></g><circle id="Oval" cx="13" cy="11" fill="#ecf0f1" r="1"/><circle id="Oval" cx="29" cy="11" fill="#ecf0f1" r="1"/></g></g></svg>