<?xml version="1.0" encoding="iso-8859-1"?>
<!-- Generator: Adobe Illustrator 19.0.0, SVG Export Plug-In . SVG Version: 6.00 Build 0)  -->
<svg version="1.1" id="Capa_1" xmlns="http://www.w3.org/2000/svg" xmlns:xlink="http://www.w3.org/1999/xlink" x="0px" y="0px"
	 viewBox="0 0 512 512" style="enable-background:new 0 0 512 512;" xml:space="preserve">
<g>
	<g>
		<path style="fill:#802F34;" d="M397.241,375.172h17.655c4.875,0,8.828,3.952,8.828,8.828v26.483h-35.31V384
			C388.414,379.125,392.366,375.172,397.241,375.172z"/>
		<path style="fill:#802F34;" d="M467.862,375.172h17.655c4.875,0,8.828,3.952,8.828,8.828v26.483h-35.31V384
			C459.034,379.125,462.987,375.172,467.862,375.172z"/>
	</g>
	<g>
		<path style="fill:#14A085;" d="M26.483,375.172h17.655c4.875,0,8.828,3.952,8.828,8.828v26.483h-35.31V384
			C17.655,379.125,21.607,375.172,26.483,375.172z"/>
		<path style="fill:#14A085;" d="M97.103,375.172h17.655c4.875,0,8.828,3.952,8.828,8.828v26.483h-35.31V384
			C88.276,379.125,92.228,375.172,97.103,375.172z"/>
		<path style="fill:#14A085;" d="M397.241,163.31h17.655c4.875,0,8.828,3.952,8.828,8.828v26.483h-35.31v-26.483
			C388.414,167.263,392.366,163.31,397.241,163.31z"/>
		<path style="fill:#14A085;" d="M467.862,163.31h17.655c4.875,0,8.828,3.952,8.828,8.828v26.483h-35.31v-26.483
			C459.034,167.263,462.987,163.31,467.862,163.31z"/>
	</g>
	<path style="fill:#46B29D;" d="M17.655,401.655h229.517c9.751,0,17.655,7.904,17.655,17.655v70.621
		c0,9.751-7.904,17.655-17.655,17.655H17.655C7.904,507.586,0,499.682,0,489.931V419.31C0,409.56,7.904,401.655,17.655,401.655z"/>
	<path style="fill:#CC4B4C;" d="M229.517,83.862h105.931c9.751,0,17.655,7.904,17.655,17.655v70.621
		c0,9.751-7.905,17.655-17.655,17.655H229.517c-9.751,0-17.655-7.904-17.655-17.655v-70.621
		C211.862,91.767,219.767,83.862,229.517,83.862z"/>
	<g>
		<path style="fill:#285680;" d="M167.724,4.414h17.655c4.875,0,8.828,3.952,8.828,8.828v26.483h-35.31V13.241
			C158.897,8.366,162.849,4.414,167.724,4.414z"/>
		<path style="fill:#285680;" d="M238.345,4.414H256c4.875,0,8.828,3.952,8.828,8.828v26.483h-35.31V13.241
			C229.517,8.366,233.469,4.414,238.345,4.414z"/>
		<path style="fill:#285680;" d="M308.966,4.414h17.655c4.875,0,8.828,3.952,8.828,8.828v26.483h-35.31V13.241
			C300.138,8.366,304.09,4.414,308.966,4.414z"/>
		<path style="fill:#285680;" d="M379.586,4.414h17.655c4.875,0,8.828,3.952,8.828,8.828v26.483h-35.31V13.241
			C370.759,8.366,374.711,4.414,379.586,4.414z"/>
		<path style="fill:#285680;" d="M450.207,4.414h17.655c4.875,0,8.828,3.952,8.828,8.828v26.483h-35.31V13.241
			C441.379,8.366,445.332,4.414,450.207,4.414z"/>
	</g>
	<path style="fill:#F29C1F;" d="M185.379,269.241h17.655c4.875,0,8.828,3.952,8.828,8.828v26.483h-35.31v-26.483
		C176.552,273.194,180.504,269.241,185.379,269.241z"/>
	<path style="fill:#F0C419;" d="M176.552,295.724h158.897c9.751,0,17.655,7.904,17.655,17.655V384
		c0,9.751-7.905,17.655-17.655,17.655H176.552c-9.751,0-17.655-7.905-17.655-17.655v-70.621
		C158.897,303.629,166.801,295.724,176.552,295.724z"/>
	<path style="fill:#46B29D;" d="M264.828,189.793h229.517c9.751,0,17.655,7.904,17.655,17.655v70.621
		c0,9.751-7.905,17.655-17.655,17.655H264.828c-9.751,0-17.655-7.905-17.655-17.655v-70.621
		C247.172,197.698,255.077,189.793,264.828,189.793z"/>
	<path style="fill:#CC4B4C;" d="M326.621,401.655h167.724c9.751,0,17.655,7.904,17.655,17.655v70.621
		c0,9.751-7.905,17.655-17.655,17.655H326.621c-9.751,0-17.655-7.905-17.655-17.655V419.31
		C308.966,409.56,316.87,401.655,326.621,401.655z"/>
	<path style="fill:#4482C3;" d="M158.897,30.897H476.69c9.751,0,17.655,7.904,17.655,17.655v17.655
		c0,9.751-7.904,17.655-17.655,17.655H158.897c-9.751,0-17.655-7.904-17.655-17.655V48.552
		C141.241,38.801,149.146,30.897,158.897,30.897z"/>
</g>
<g>
</g>
<g>
</g>
<g>
</g>
<g>
</g>
<g>
</g>
<g>
</g>
<g>
</g>
<g>
</g>
<g>
</g>
<g>
</g>
<g>
</g>
<g>
</g>
<g>
</g>
<g>
</g>
<g>
</g>
</svg>
