<?xml version="1.0" encoding="iso-8859-1"?>
<!-- Generator: Adobe Illustrator 19.0.0, SVG Export Plug-In . SVG Version: 6.00 Build 0)  -->
<svg version="1.1" id="Capa_1" xmlns="http://www.w3.org/2000/svg" xmlns:xlink="http://www.w3.org/1999/xlink" x="0px" y="0px"
	 viewBox="0 0 512.056 512.056" style="enable-background:new 0 0 512.056 512.056;" xml:space="preserve">
<g>
	<g transform="translate(0 2)">
		<g>
			<path style="fill:#D4E1F4;" d="M392.561,373.467h17.067c4.713,0,8.533,3.821,8.533,8.533v25.6h-34.133V382
				C384.028,377.287,387.849,373.467,392.561,373.467z"/>
			<path style="fill:#D4E1F4;" d="M460.828,373.467h17.067c4.713,0,8.533,3.821,8.533,8.533v25.6h-34.133V382
				C452.295,377.287,456.115,373.467,460.828,373.467z"/>
			<path style="fill:#D4E1F4;" d="M34.161,373.467h17.067c4.713,0,8.533,3.821,8.533,8.533v25.6H25.628V382
				C25.628,377.287,29.449,373.467,34.161,373.467z"/>
			<path style="fill:#D4E1F4;" d="M102.428,373.467h17.067c4.713,0,8.533,3.821,8.533,8.533v25.6H93.895V382
				C93.895,377.287,97.715,373.467,102.428,373.467z"/>
			<path style="fill:#D4E1F4;" d="M392.561,168.667h17.067c4.713,0,8.533,3.821,8.533,8.533v25.6h-34.133v-25.6
				C384.028,172.487,387.849,168.667,392.561,168.667z"/>
			<path style="fill:#D4E1F4;" d="M460.828,168.667h17.067c4.713,0,8.533,3.821,8.533,8.533v25.6h-34.133v-25.6
				C452.295,172.487,456.115,168.667,460.828,168.667z"/>
			<path style="fill:#D4E1F4;" d="M25.628,399.067h221.867c9.426,0,17.067,7.641,17.067,17.067V484.4
				c0,9.426-7.641,17.067-17.067,17.067H25.628c-9.426,0-17.067-7.641-17.067-17.067v-68.267
				C8.561,406.708,16.202,399.067,25.628,399.067z"/>
		</g>
		<path style="fill:#E7EBF4;" d="M238.961,416.133V484.4c0.436,8.942-6.422,16.562-15.36,17.067H23.921
			c-8.938-0.505-15.796-8.125-15.36-17.067v-68.267c-0.436-8.942,6.422-16.562,15.36-17.067h199.68
			C232.54,399.572,239.398,407.191,238.961,416.133z"/>
		<path style="fill:#D4E1F4;" d="M230.428,91.867h102.4c9.426,0,17.067,7.641,17.067,17.067V177.2
			c0,9.426-7.641,17.067-17.067,17.067h-102.4c-9.426,0-17.067-7.641-17.067-17.067v-68.267
			C213.361,99.508,221.002,91.867,230.428,91.867z"/>
		<path style="fill:#E7EBF4;" d="M324.295,108.933V177.2c0.753,8.487-5.365,16.041-13.824,17.067h-83.2
			c-8.493-0.984-14.659-8.55-13.909-17.067v-68.267c-0.75-8.517,5.416-16.083,13.909-17.067h83.2
			C318.93,92.893,325.048,100.446,324.295,108.933z"/>
		<g>
			<path style="fill:#D4E1F4;" d="M170.695,15.067h17.067c4.713,0,8.533,3.821,8.533,8.533v25.6h-34.133V23.6
				C162.161,18.887,165.982,15.067,170.695,15.067z"/>
			<path style="fill:#D4E1F4;" d="M238.961,15.067h17.067c4.713,0,8.533,3.821,8.533,8.533v25.6h-34.133V23.6
				C230.428,18.887,234.249,15.067,238.961,15.067z"/>
			<path style="fill:#D4E1F4;" d="M307.228,15.067h17.067c4.713,0,8.533,3.821,8.533,8.533v25.6h-34.133V23.6
				C298.695,18.887,302.515,15.067,307.228,15.067z"/>
			<path style="fill:#D4E1F4;" d="M375.495,15.067h17.067c4.713,0,8.533,3.821,8.533,8.533v25.6h-34.133V23.6
				C366.961,18.887,370.782,15.067,375.495,15.067z"/>
			<path style="fill:#D4E1F4;" d="M443.762,15.067h17.067c4.713,0,8.533,3.821,8.533,8.533v25.6h-34.133V23.6
				C435.228,18.887,439.049,15.067,443.762,15.067z"/>
			<path style="fill:#D4E1F4;" d="M187.761,271.067h17.067c4.713,0,8.533,3.82,8.533,8.533v25.6h-34.133v-25.6
				C179.228,274.887,183.049,271.067,187.761,271.067z"/>
			<path style="fill:#D4E1F4;" d="M179.228,296.667h153.6c9.426,0,17.067,7.641,17.067,17.067V382
				c0,9.426-7.641,17.067-17.067,17.067h-153.6c-9.426,0-17.067-7.641-17.067-17.067v-68.267
				C162.161,304.308,169.802,296.667,179.228,296.667z"/>
		</g>
		<path style="fill:#E7EBF4;" d="M324.295,313.733V382c0.588,8.773-5.996,16.385-14.763,17.067H176.924
			c-8.766-0.682-15.35-8.293-14.763-17.067v-68.267c-0.588-8.773,5.996-16.385,14.763-17.067h132.608
			C318.299,297.349,324.883,304.96,324.295,313.733z"/>
		<path style="fill:#D4E1F4;" d="M264.561,194.267h221.867c9.426,0,17.067,7.641,17.067,17.067V279.6
			c0,9.426-7.641,17.067-17.067,17.067H264.561c-9.426,0-17.067-7.641-17.067-17.067v-68.267
			C247.495,201.908,255.136,194.267,264.561,194.267z"/>
		<path style="fill:#E7EBF4;" d="M477.895,211.333V279.6c0.436,8.942-6.422,16.562-15.36,17.067h-199.68
			c-8.938-0.505-15.796-8.125-15.36-17.067v-68.267c-0.436-8.942,6.422-16.562,15.36-17.067h199.68
			C471.473,194.772,478.331,202.391,477.895,211.333z"/>
		<path style="fill:#D4E1F4;" d="M324.295,399.067h162.133c9.426,0,17.067,7.641,17.067,17.067V484.4
			c0,9.426-7.641,17.067-17.067,17.067H324.295c-9.426,0-17.067-7.641-17.067-17.067v-68.267
			C307.228,406.708,314.869,399.067,324.295,399.067z"/>
		<path style="fill:#E7EBF4;" d="M324.295,399.067h136.533c9.426,0,17.067,7.641,17.067,17.067V484.4
			c0,9.426-7.641,17.067-17.067,17.067H324.295c-9.426,0-17.067-7.641-17.067-17.067v-68.267
			C307.228,406.708,314.869,399.067,324.295,399.067z"/>
		<path style="fill:#D4E1F4;" d="M162.161,40.667h307.2c9.426,0,17.067,7.641,17.067,17.067V74.8
			c0,9.426-7.641,17.067-17.067,17.067h-307.2c-9.426,0-17.067-7.641-17.067-17.067V57.733
			C145.095,48.308,152.736,40.667,162.161,40.667z"/>
		<path style="fill:#E7EBF4;" d="M162.161,40.667h281.6c9.426,0,17.067,7.641,17.067,17.067V74.8
			c0,9.426-7.641,17.067-17.067,17.067h-281.6c-9.426,0-17.067-7.641-17.067-17.067V57.733
			C145.095,48.308,152.736,40.667,162.161,40.667z"/>
	</g>
	<path style="fill:#FFFFFF;" d="M23.921,503.467h25.6c-8.938-0.505-15.796-8.125-15.36-17.067v-68.267
		c-0.436-8.942,6.422-16.562,15.36-17.067h1.707V384c0.048-3,1.668-5.754,4.267-7.253c-1.284-0.797-2.756-1.239-4.267-1.28H34.161
		c-4.713,0-8.533,3.821-8.533,8.533v17.067h-1.707c-8.938,0.505-15.796,8.125-15.36,17.067V486.4
		C8.125,495.342,14.983,502.962,23.921,503.467z"/>
	<g>
		<path style="fill:#FFFFFF;" d="M25.628,494.933h219.051c1.955,0.229,3.936,0.026,5.803-0.597c1.429-0.512,2.696-1.396,3.669-2.56
			c0.951-1.182,1.569-2.596,1.792-4.096c0,0,0-0.683,0-1.109v-69.035c-0.133-1.492-0.632-2.928-1.451-4.181
			c-0.884-1.231-2.056-2.227-3.413-2.901c-0.664-0.355-1.387-0.586-2.133-0.683c-0.992-0.121-1.995-0.121-2.987,0H25.628
			c-0.738-0.076-1.481-0.076-2.219,0c-1.432,0.426-2.726,1.221-3.755,2.304c-1.047,1.096-1.783,2.451-2.133,3.925
			c-0.112,0.821-0.112,1.654,0,2.475V486.4c-0.041,1.553,0.343,3.087,1.109,4.437C20.124,493.294,22.755,494.834,25.628,494.933V512
			c-9.218,0.001-17.725-4.953-22.272-12.971c-2.131-3.872-3.274-8.21-3.328-12.629v-67.755c-0.013-2.18,0.216-4.356,0.683-6.485
			c1.09-4.383,3.294-8.411,6.4-11.691c4.828-5.065,11.52-7.933,18.517-7.936h220.416c2.016-0.18,4.043-0.18,6.059,0
			c2.208,0.423,4.357,1.111,6.4,2.048c4.057,1.933,7.552,4.87,10.155,8.533c2.675,3.913,4.211,8.492,4.437,13.227
			c0,2.645,0,3.413,0,5.12v65.451c0.084,1.136,0.084,2.277,0,3.413c-0.658,4.478-2.516,8.695-5.376,12.203
			c-2.863,3.5-6.602,6.18-10.837,7.765c-3.796,1.374-7.832,1.955-11.861,1.707H25.628V494.933z"/>
		<g>
			<path style="fill:#51A1FF;" d="M99.953,509.525c0.777-0.812,1.386-1.769,1.792-2.816c0.437-1.026,0.669-2.128,0.683-3.243
				c0.02-3.467-2.059-6.601-5.261-7.931c-3.202-1.329-6.89-0.59-9.331,1.872l-1.024,1.28c-0.323,0.476-0.581,0.992-0.768,1.536
				c-0.246,0.484-0.419,1.001-0.512,1.536c-0.038,0.568-0.038,1.138,0,1.707c0.031,2.259,0.915,4.423,2.475,6.059
				c0.812,0.777,1.769,1.386,2.816,1.792C93.953,512.578,97.532,511.875,99.953,509.525z"/>
			<path style="fill:#51A1FF;" d="M494.961,189.269v-18.603c0-9.426-7.641-17.067-17.067-17.067h-17.067
				c-9.426,0-17.067,7.641-17.067,17.067v17.067h-17.067v-17.067c0-9.426-7.641-17.067-17.067-17.067h-17.067
				c-9.426,0-17.067,7.641-17.067,17.067v17.067h-18.603c0.993-2.736,1.513-5.622,1.536-8.533v-68.267
				c-0.023-2.911-0.543-5.797-1.536-8.533h112.469c14.138,0,25.6-11.462,25.6-25.6V59.733c-0.03-10.822-6.863-20.457-17.067-24.064
				V17.067C477.895,7.641,470.254,0,460.828,0h-17.067c-9.426,0-17.067,7.641-17.067,17.067v17.067h-17.067V17.067
				C409.628,7.641,401.987,0,392.561,0h-17.067c-9.426,0-17.067,7.641-17.067,17.067v17.067h-17.067V17.067
				C341.361,7.641,333.72,0,324.295,0h-17.067c-9.426,0-17.067,7.641-17.067,17.067v17.067h-17.067V17.067
				C273.095,7.641,265.454,0,256.028,0h-17.067c-9.426,0-17.067,7.641-17.067,17.067v17.067h-17.067V17.067
				C204.828,7.641,197.187,0,187.761,0h-17.067c-9.426,0-17.067,7.641-17.067,17.067v18.603
				c-10.204,3.607-17.036,13.242-17.067,24.064V76.8c0,14.138,11.462,25.6,25.6,25.6h44.203c-0.993,2.736-1.513,5.622-1.536,8.533
				V179.2c0,14.138,11.462,25.6,25.6,25.6h10.069c-0.993,2.736-1.513,5.622-1.536,8.533V281.6c0.023,2.911,0.543,5.797,1.536,8.533
				h-18.603v-17.067c0-9.426-7.641-17.067-17.067-17.067h-17.067c-9.426,0-17.067,7.641-17.067,17.067v18.603
				c-10.204,3.607-17.036,13.242-17.067,24.064V384c0.023,2.911,0.543,5.797,1.536,8.533h-18.603v-17.067
				c0-9.426-7.641-17.067-17.067-17.067h-17.067c-9.426,0-17.067,7.641-17.067,17.067v17.067H68.295v-17.067
				c0-9.426-7.641-17.067-17.067-17.067H34.161c-9.426,0-17.067,7.641-17.067,17.067v18.688c-3.775,1.298-7.194,3.46-9.984,6.315
				c-3.106,3.28-5.31,7.307-6.4,11.691c-0.467,2.13-0.696,4.305-0.683,6.485V486.4c0.012,4.506,1.156,8.937,3.328,12.885
				c4.613,7.919,13.107,12.769,22.272,12.715h34.133c4.713,0,8.533-3.82,8.533-8.533c0-4.713-3.821-8.533-8.533-8.533H25.628
				c-3.079-0.005-5.916-1.668-7.424-4.352c-0.723-1.275-1.105-2.715-1.109-4.181v-67.755c-0.112-0.821-0.112-1.654,0-2.475
				c0.35-1.475,1.086-2.83,2.133-3.925c1.056-1.248,2.448-2.166,4.011-2.645c0.794-0.088,1.595-0.088,2.389,0h220.416
				c0.992-0.121,1.995-0.121,2.987,0c0.747,0.097,1.469,0.328,2.133,0.683c1.357,0.675,2.529,1.671,3.413,2.901
				c0.819,1.254,1.317,2.69,1.451,4.181V486.4c0,0,0,0.768,0,1.109c-0.223,1.5-0.841,2.914-1.792,4.096
				c-0.974,1.164-2.24,2.048-3.669,2.56c-1.867,0.623-3.848,0.827-5.803,0.597H128.028c-4.713,0-8.533,3.82-8.533,8.533
				s3.821,8.533,8.533,8.533h116.651c4.029,0.248,8.066-0.333,11.861-1.707c4.235-1.586,7.974-4.265,10.837-7.765
				c2.955-3.422,4.931-7.579,5.717-12.032c0.084-1.136,0.084-2.277,0-3.413v-65.451c0-1.707,0-2.475,0-5.12
				c-0.117-2.303-0.577-4.575-1.365-6.741h28.587c-1.023,2.731-1.571,5.617-1.621,8.533V486.4c0,14.138,11.462,25.6,25.6,25.6
				h162.133c14.138,0,25.6-11.461,25.6-25.6v-68.267c-0.03-10.822-6.863-20.457-17.067-24.064v-18.603
				c0-9.426-7.641-17.067-17.067-17.067h-17.067c-9.426,0-17.067,7.641-17.067,17.067v17.067h-17.067v-17.067
				c0-9.426-7.641-17.067-17.067-17.067h-17.067c-9.426,0-17.067,7.641-17.067,17.067v17.067h-18.603
				c0.993-2.736,1.513-5.622,1.536-8.533v-68.267c-0.023-2.911-0.543-5.797-1.536-8.533h129.536c14.138,0,25.6-11.462,25.6-25.6
				v-68.267C511.998,202.511,505.165,192.877,494.961,189.269z M460.828,170.667h17.067v17.067h-17.067V170.667z M392.561,170.667
				h17.067v17.067h-17.067V170.667z M443.762,17.067h17.067v17.067h-17.067V17.067z M375.495,17.067h17.067v17.067h-17.067V17.067z
				 M307.228,17.067h17.067v17.067h-17.067V17.067z M238.961,17.067h17.067v17.067h-17.067V17.067z M170.695,17.067h17.067v17.067
				h-17.067V17.067z M153.628,76.8V59.733c0-4.713,3.821-8.533,8.533-8.533h307.2c4.713,0,8.533,3.821,8.533,8.533V76.8
				c0,4.713-3.821,8.533-8.533,8.533h-307.2C157.449,85.333,153.628,81.513,153.628,76.8z M221.895,179.2v-68.267
				c0-4.713,3.821-8.533,8.533-8.533h102.4c4.713,0,8.533,3.821,8.533,8.533V179.2c0,4.713-3.82,8.533-8.533,8.533h-102.4
				C225.715,187.733,221.895,183.913,221.895,179.2z M187.761,273.067h17.067v17.067h-17.067V273.067z M47.9,392.533H34.161v-17.067
				h17.067v17.067H47.9z M102.428,392.533v-17.067h17.067v17.067H102.428z M494.961,486.4c0,4.713-3.82,8.533-8.533,8.533H324.295
				c-4.713,0-8.533-3.82-8.533-8.533v-68.267c0-4.713,3.821-8.533,8.533-8.533h162.133c4.713,0,8.533,3.82,8.533,8.533V486.4z
				 M460.828,375.467h17.067v17.067h-17.067V375.467z M392.561,375.467h17.067v17.067h-17.067V375.467z M341.361,315.733V384
				c0,4.713-3.82,8.533-8.533,8.533h-153.6c-4.713,0-8.533-3.82-8.533-8.533v-68.267c0-4.713,3.821-8.533,8.533-8.533h153.6
				C337.541,307.2,341.361,311.021,341.361,315.733z M494.961,281.6c0,4.713-3.82,8.533-8.533,8.533H264.561
				c-4.713,0-8.533-3.821-8.533-8.533v-68.267c0-4.713,3.821-8.533,8.533-8.533h221.867c4.713,0,8.533,3.82,8.533,8.533V281.6z"/>
		</g>
	</g>
</g>
<g>
</g>
<g>
</g>
<g>
</g>
<g>
</g>
<g>
</g>
<g>
</g>
<g>
</g>
<g>
</g>
<g>
</g>
<g>
</g>
<g>
</g>
<g>
</g>
<g>
</g>
<g>
</g>
<g>
</g>
</svg>
