<?xml version="1.0" encoding="iso-8859-1"?>
<!-- Generator: Adobe Illustrator 19.0.0, SVG Export Plug-In . SVG Version: 6.00 Build 0)  -->
<svg version="1.1" id="Capa_1" xmlns="http://www.w3.org/2000/svg" xmlns:xlink="http://www.w3.org/1999/xlink" x="0px" y="0px"
	 viewBox="0 0 512 512" style="enable-background:new 0 0 512 512;" xml:space="preserve">
<g>
	<g>
		<path d="M512,281.6v-68.267c-0.033-10.813-6.868-20.435-17.067-24.028v-18.639c-0.011-9.421-7.645-17.056-17.067-17.067H460.8
			c-9.421,0.011-17.056,7.645-17.067,17.067v17.067h-17.067v-17.067c-0.011-9.421-7.645-17.056-17.067-17.067h-17.067
			c-9.421,0.011-17.056,7.645-17.067,17.067v17.067h-18.639c1.012-2.733,1.544-5.62,1.572-8.533v-68.267
			c-0.029-2.914-0.561-5.801-1.572-8.533h112.506c14.132-0.015,25.585-11.468,25.6-25.6V59.733
			c-0.033-10.813-6.868-20.435-17.067-24.028V17.067C477.856,7.645,470.221,0.011,460.8,0h-17.067
			c-9.421,0.011-17.056,7.645-17.067,17.067v17.067H409.6V17.067C409.589,7.645,401.955,0.011,392.533,0h-17.067
			c-9.421,0.011-17.056,7.645-17.067,17.067v17.067h-17.067V17.067C341.323,7.645,333.688,0.011,324.267,0H307.2
			c-9.421,0.011-17.056,7.645-17.067,17.067v17.067h-17.067V17.067C273.056,7.645,265.421,0.011,256,0h-17.067
			c-9.421,0.011-17.056,7.645-17.067,17.067v17.067H204.8V17.067C204.789,7.645,197.155,0.011,187.733,0h-17.067
			c-9.421,0.011-17.056,7.645-17.067,17.067v18.639c-10.199,3.592-17.033,13.215-17.067,24.028V76.8
			c0.015,14.132,11.468,25.585,25.6,25.6h44.239c-1.012,2.733-1.544,5.62-1.572,8.533V179.2c0.015,14.132,11.468,25.585,25.6,25.6
			h10.106c-1.012,2.733-1.544,5.62-1.572,8.533V281.6c0.029,2.914,0.561,5.801,1.573,8.533h-18.64v-17.067
			c-0.011-9.421-7.646-17.056-17.067-17.067h-17.067c-9.421,0.011-17.056,7.646-17.067,17.067v18.639
			c-10.199,3.593-17.033,13.215-17.067,24.028V384c0.029,2.914,0.561,5.801,1.573,8.533h-18.64v-17.067
			c-0.011-9.421-7.645-17.056-17.067-17.067H102.4c-9.421,0.011-17.056,7.645-17.067,17.067v17.067H68.267v-17.067
			c-0.011-9.421-7.645-17.056-17.067-17.067H34.133c-9.421,0.011-17.056,7.645-17.067,17.067v18.639
			C6.868,397.698,0.033,407.32,0,418.133V486.4c0.015,14.132,11.468,25.585,25.6,25.6h221.867c14.132-0.015,25.585-11.468,25.6-25.6
			v-68.267c-0.029-2.914-0.561-5.801-1.572-8.533h28.745c-1.012,2.733-1.544,5.62-1.572,8.533V486.4
			c0.015,14.132,11.468,25.585,25.6,25.6H486.4c14.132-0.015,25.585-11.468,25.6-25.6v-68.267
			c-0.033-10.813-6.868-20.435-17.067-24.028v-18.639c-0.011-9.421-7.645-17.056-17.067-17.067H460.8
			c-9.421,0.011-17.056,7.645-17.067,17.067v17.067h-17.067v-17.067c-0.011-9.421-7.645-17.056-17.067-17.067h-17.067
			c-9.421,0.011-17.056,7.645-17.067,17.067v17.067h-18.639c1.012-2.733,1.544-5.62,1.572-8.533v-68.267
			c-0.029-2.914-0.561-5.801-1.572-8.533H486.4C500.532,307.185,511.985,295.732,512,281.6z M460.8,170.667h17.067v17.067H460.8
			V170.667z M392.533,170.667H409.6v17.067h-17.067V170.667z M443.733,17.067H460.8v17.067h-17.067V17.067z M375.467,17.067h17.067
			v17.067h-17.067V17.067z M307.2,17.067h17.067v17.067H307.2V17.067z M238.933,17.067H256v17.067h-17.067V17.067z M170.667,17.067
			h17.067v17.067h-17.067V17.067z M162.133,85.333c-4.711-0.005-8.529-3.822-8.533-8.533V59.733
			c0.005-4.711,3.822-8.529,8.533-8.533h307.2c4.711,0.005,8.529,3.822,8.533,8.533V76.8c-0.005,4.711-3.822,8.529-8.533,8.533
			H162.133z M230.4,187.733c-4.711-0.005-8.529-3.822-8.533-8.533v-68.267c0.005-4.711,3.822-8.529,8.533-8.533h102.4
			c4.711,0.005,8.529,3.822,8.533,8.533V179.2c-0.005,4.711-3.823,8.529-8.533,8.533H230.4z M187.733,273.067H204.8v17.067h-17.067
			V273.067z M102.4,375.467h17.067v17.067H102.4V375.467z M34.133,375.467H51.2v17.067H34.133V375.467z M256,486.4
			c-0.005,4.711-3.822,8.529-8.533,8.533H25.6c-4.711-0.005-8.529-3.822-8.533-8.533v-68.267c0.005-4.711,3.822-8.529,8.533-8.533
			h221.867c4.711,0.005,8.529,3.822,8.533,8.533V486.4z M179.2,392.533c-4.711-0.005-8.529-3.822-8.533-8.533v-68.267
			c0.005-4.711,3.822-8.529,8.533-8.533h153.6c4.711,0.005,8.529,3.822,8.533,8.533V384c-0.005,4.711-3.823,8.529-8.533,8.533H179.2
			z M460.8,375.467h17.067v17.067H460.8V375.467z M392.533,375.467H409.6v17.067h-17.067V375.467z M486.4,409.6
			c4.711,0.005,8.529,3.822,8.533,8.533V486.4c-0.005,4.711-3.822,8.529-8.533,8.533H324.267c-4.711-0.005-8.529-3.822-8.533-8.533
			v-68.267c0.005-4.711,3.822-8.529,8.533-8.533H486.4z M264.533,290.133c-4.711-0.005-8.529-3.822-8.533-8.533v-68.267
			c0.005-4.711,3.822-8.529,8.533-8.533H486.4c4.711,0.005,8.529,3.823,8.533,8.533V281.6c-0.005,4.711-3.822,8.529-8.533,8.533
			H264.533z"/>
	</g>
</g>
<g>
</g>
<g>
</g>
<g>
</g>
<g>
</g>
<g>
</g>
<g>
</g>
<g>
</g>
<g>
</g>
<g>
</g>
<g>
</g>
<g>
</g>
<g>
</g>
<g>
</g>
<g>
</g>
<g>
</g>
</svg>
